<?xml version="1.0" encoding="UTF-8"?>
<svg width="1001px" height="984px" viewBox="0 0 1001 984" version="1.1" xmlns="http://www.w3.org/2000/svg" xmlns:xlink="http://www.w3.org/1999/xlink">
    <!-- Generator: Sketch 60 (88103) - https://sketch.com -->
    <title>Scriptuit_Website-updated</title>
    <desc>Created with Sketch.</desc>
    <defs>
        <polygon id="path-1" points="-144 -33 1056 -33 1056 2103 -144 2103"></polygon>
    </defs>
    <g id="Scriptuit_Website-updated" stroke="none" stroke-width="1" fill="none" fill-rule="evenodd">
        <mask id="mask-2" fill="white">
            <use xlink:href="#path-1"></use>
        </mask>
        <g id="Clip-432"></g>
        <path d="M335,870 C335,839.076868 309.926255,814 278.998498,814 C248.072744,814 223,839.076868 223,870 C223,900.933143 248.072744,926 278.998498,926 C309.926255,926 335,900.933143 335,870" id="Fill-431" fill="#EDEDED" mask="url(#mask-2)"></path>
        <path d="M874,770 C874,737.411804 847.583653,711 814.999002,711 C782.416347,711 756,737.411804 756,770 C756,802.578217 782.416347,829 814.999002,829 C847.583653,829 874,802.578217 874,770" id="Fill-444" fill="#F4CBBA" mask="url(#mask-2)"></path>
        <path d="M815,770 L103.021803,770 C63.411162,770 31,737.618532 31,698.041181 L31,509.948824 C31,470.381468 63.411162,438 103.021803,438 L742.980197,438 C782.591839,438 815,405.618532 815,366.041181 L815,177.948824 C815,138.371474 782.591839,106 742.980197,106 L31,106" id="Stroke-445" stroke="#1D1D1B" stroke-width="0.973" mask="url(#mask-2)"></path>
        <path d="M40,105.5 C40,100.805054 36.1964264,97 31.5010227,97 C26.8066418,97 23,100.805054 23,105.5 C23,110.194946 26.8066418,114 31.5010227,114 C36.1964264,114 40,110.194946 40,105.5" id="Fill-446" fill="#F6F6F6" mask="url(#mask-2)"></path>
        <path d="M40,105.5 C40,100.805054 36.1913127,97 31.5,97 C26.8086873,97 23,100.805054 23,105.5 C23,110.184717 26.8086873,114 31.5,114 C36.1913127,114 40,110.184717 40,105.5 Z" id="Stroke-447" stroke="#1D1D1B" stroke-width="0.973" mask="url(#mask-2)"></path>
        <path d="M824,770.5 C824,765.805054 820.194381,762 815.498977,762 C810.806642,762 807,765.805054 807,770.5 C807,775.194946 810.806642,779 815.498977,779 C820.194381,779 824,775.194946 824,770.5" id="Fill-448" fill="#F4CBBA" mask="url(#mask-2)"></path>
        <path d="M824,770.5 C824,765.805054 820.191313,762 815.5,762 C810.808687,762 807,765.805054 807,770.5 C807,775.184717 810.808687,779 815.5,779 C820.191313,779 824,775.184717 824,770.5 Z" id="Stroke-449" stroke="#1D1D1B" stroke-width="0.973" mask="url(#mask-2)"></path>
        <path d="M287,105.5 C287,100.805054 283.193358,97 278.501023,97 C273.805619,97 270,100.805054 270,105.5 C270,110.194946 273.805619,114 278.501023,114 C283.193358,114 287,110.194946 287,105.5" id="Fill-450" fill="#FFFFFF" mask="url(#mask-2)"></path>
        <path d="M287,105.5 C287,100.805054 283.191313,97 278.5,97 C273.808687,97 270,100.805054 270,105.5 C270,110.184717 273.808687,114 278.5,114 C283.191313,114 287,110.184717 287,105.5 Z" id="Stroke-451" stroke="#1D1D1B" stroke-width="0.973" mask="url(#mask-2)"></path>
        <path d="M289,437.5 C289,432.805054 285.195969,429 280.5,429 C275.805054,429 272,432.805054 272,437.5 C272,442.194946 275.805054,446 280.5,446 C285.195969,446 289,442.194946 289,437.5" id="Fill-452" fill="#FFFFFF" mask="url(#mask-2)"></path>
        <path d="M289,437.5 C289,432.805054 285.190854,429 280.5,429 C275.809146,429 272,432.805054 272,437.5 C272,442.184717 275.809146,446 280.5,446 C285.190854,446 289,442.184717 289,437.5 Z" id="Stroke-453" stroke="#1D1D1B" stroke-width="0.973" mask="url(#mask-2)"></path>
        <path d="M614,437.5 C614,432.805054 610.19574,429 605.500511,429 C600.806306,429 597,432.805054 597,437.5 C597,442.194946 600.806306,446 605.500511,446 C610.19574,446 614,442.194946 614,437.5" id="Fill-454" fill="#FFFFFF" mask="url(#mask-2)"></path>
        <path d="M614,437.5 C614,432.805054 610.191648,429 605.500511,429 C600.808352,429 597,432.805054 597,437.5 C597,442.184717 600.808352,446 605.500511,446 C610.191648,446 614,442.184717 614,437.5 Z" id="Stroke-455" stroke="#1D1D1B" stroke-width="0.973" mask="url(#mask-2)"></path>
        <path d="M289,770.5 C289,765.805054 285.195969,762 280.5,762 C275.805054,762 272,765.805054 272,770.5 C272,775.194946 275.805054,779 280.5,779 C285.195969,779 289,775.194946 289,770.5" id="Fill-456" fill="#FFFFFF" mask="url(#mask-2)"></path>
        <path d="M289,770.5 C289,765.805054 285.190854,762 280.5,762 C275.809146,762 272,765.805054 272,770.5 C272,775.184717 275.809146,779 280.5,779 C285.190854,779 289,775.184717 289,770.5 Z" id="Stroke-457" stroke="#1D1D1B" stroke-width="0.973" mask="url(#mask-2)"></path>
        <path d="M614,770.5 C614,765.805054 610.19574,762 605.500511,762 C600.806306,762 597,765.805054 597,770.5 C597,775.194946 600.806306,779 605.500511,779 C610.19574,779 614,775.194946 614,770.5" id="Fill-458" fill="#FFFFFF" mask="url(#mask-2)"></path>
        <path d="M614,770.5 C614,765.805054 610.191648,762 605.500511,762 C600.808352,762 597,765.805054 597,770.5 C597,775.184717 600.808352,779 605.500511,779 C610.191648,779 614,775.184717 614,770.5 Z" id="Stroke-459" stroke="#1D1D1B" stroke-width="0.973" mask="url(#mask-2)"></path>
        <path d="M614,105.5 C614,100.805054 610.19574,97 605.500511,97 C600.806306,97 597,100.805054 597,105.5 C597,110.194946 600.806306,114 605.500511,114 C610.19574,114 614,110.194946 614,105.5" id="Fill-460" fill="#FFFFFF" mask="url(#mask-2)"></path>
        <path d="M614,105.5 C614,100.805054 610.191648,97 605.500511,97 C600.808352,97 597,100.805054 597,105.5 C597,110.184717 600.808352,114 605.500511,114 C610.191648,114 614,110.184717 614,105.5 Z" id="Stroke-461" stroke="#1D1D1B" stroke-width="0.973" mask="url(#mask-2)"></path>
        <path d="M662,206 C662,175.066857 636.927256,150 605.998498,150 C575.070742,150 550,175.066857 550,206 C550,236.933143 575.070742,262 605.998498,262 C636.927256,262 662,236.933143 662,206" id="Fill-462" fill="#EDEDED" mask="url(#mask-2)"></path>
        <path d="M334,206 C334,175.066857 308.926255,150 277.998498,150 C247.070742,150 222,175.066857 222,206 C222,236.933143 247.070742,262 277.998498,262 C308.926255,262 334,236.933143 334,206" id="Fill-463" fill="#EDEDED" mask="url(#mask-2)"></path>
        <path d="M594.571212,391.728218 C596.957731,390.214919 598.542,387.551513 598.542,384.524916 C598.542,379.823601 594.716892,376 589.997471,376 C585.27805,376 581.452942,379.823601 581.452942,384.524916 C581.452942,387.551513 583.039234,390.214919 585.425753,391.728218 C578.817552,394.210028 574,401.776521 574,409 L606,409 C606,401.776521 601.179413,394.210028 594.571212,391.728218 Z" id="Stroke-464" stroke="#1D1D1B" stroke-linecap="round" stroke-linejoin="round" mask="url(#mask-2)"></path>
        <path d="M621.931239,384.912364 C625.286887,382.806941 627.518267,379.095011 627.518267,374.874187 C627.518267,368.318438 622.137119,363 615.500505,363 C608.862881,363 603.484761,368.318438 603.484761,374.874187 C603.484761,379.095011 605.713113,382.806941 609.068761,384.912364 C599.777905,388.384816 593,398.931887 593,409 L638,409 C638,398.931887 631.223104,388.384816 621.931239,384.912364 Z" id="Fill-465" fill="#F4CBBA" mask="url(#mask-2)"></path>
        <path d="M621.931239,384.912364 C625.286887,382.806941 627.518267,379.095011 627.518267,374.874187 C627.518267,368.318438 622.137119,363 615.500505,363 C608.862881,363 603.484761,368.318438 603.484761,374.874187 C603.484761,379.095011 605.713113,382.806941 609.068761,384.912364 C599.777905,388.384816 593,398.931887 593,409 L638,409 C638,398.931887 631.223104,388.384816 621.931239,384.912364 Z" id="Stroke-466" stroke="#1D1D1B" stroke-linecap="round" stroke-linejoin="round" mask="url(#mask-2)"></path>
        <path d="M304,386 C304,373.291321 293.701328,363 280.999499,363 C268.295663,363 258,373.291321 258,386 C258,398.698648 268.295663,409 280.999499,409 C293.701328,409 304,398.698648 304,386" id="Fill-467" fill="#F4CBBA" mask="url(#mask-2)"></path>
        <path d="M304,386 C304,373.301352 293.694307,363 280.999499,363 C268.305693,363 258,373.301352 258,386 C258,398.688618 268.305693,409 280.999499,409 C293.694307,409 304,398.688618 304,386 Z" id="Stroke-468" stroke="#1D1D1B" mask="url(#mask-2)"></path>
        <polyline id="Stroke-469" stroke="#202000" stroke-linecap="round" stroke-linejoin="round" mask="url(#mask-2)" points="272 386.48602 278.958611 394 290 377"></polyline>
        <text id="5." mask="url(#mask-2)" font-family="OpenSans, Open Sans" font-size="28.4086" font-weight="normal" letter-spacing="1.7613332" fill="#272724">
            <tspan x="271" y="819">5</tspan>
            <tspan x="289.004727" y="819" letter-spacing="1.75281062">.</tspan>
        </text>
        <text id="Scriptuit" mask="url(#mask-2)" font-family="OpenSans, Open Sans" font-size="40.0146" font-weight="normal" letter-spacing="-1.52855772" fill="#272724">
            <tspan x="841" y="780">Scriptuit</tspan>
        </text>
        <text id="2." mask="url(#mask-2)" font-family="OpenSans, Open Sans" font-size="28.4086" font-weight="normal" letter-spacing="1.6192902" fill="#272724">
            <tspan x="598" y="154">2</tspan>
            <tspan x="615.862684" y="154" letter-spacing="1.61076762">.</tspan>
        </text>
        <text id="1." mask="url(#mask-2)" font-family="OpenSans, Open Sans" font-size="28.4086" font-weight="normal" letter-spacing="-3.4658492" fill="#272724">
            <tspan x="266" y="154">1</tspan>
            <tspan x="278.777545" y="154" letter-spacing="-3.47437178">.</tspan>
        </text>
        <path d="M337,539.005005 C337,508.074627 311.926255,483 280.998498,483 C250.070742,483 225,508.074627 225,539.005005 C225,569.925373 250.070742,595 280.998498,595 C311.926255,595 337,569.925373 337,539.005005" id="Fill-470" fill="#EDEDED" mask="url(#mask-2)"></path>
        <polygon id="Fill-471" fill="#F4CBBA" mask="url(#mask-2)" points="252 66 300 66 300 32 252 32"></polygon>
        <polygon id="Stroke-472" stroke="#1D1D1B" stroke-linecap="round" stroke-linejoin="round" mask="url(#mask-2)" points="252 66 300 66 300 32 252 32"></polygon>
        <polyline id="Stroke-473" stroke="#1D1D1B" stroke-linecap="round" stroke-linejoin="round" mask="url(#mask-2)" points="252 32 276.251558 50 300 32"></polyline>
        <line x1="252" y1="66" x2="273" y2="47" id="Stroke-474" stroke="#1D1D1B" stroke-linecap="round" stroke-linejoin="round" mask="url(#mask-2)"></line>
        <line x1="300" y1="66" x2="280" y2="48" id="Stroke-475" stroke="#1D1D1B" stroke-linecap="round" stroke-linejoin="round" mask="url(#mask-2)"></line>
        <path d="M662,539.005005 C662,508.074627 636.927256,483 605.998498,483 C575.070742,483 550,508.074627 550,539.005005 C550,569.925373 575.070742,595 605.998498,595 C636.927256,595 662,569.925373 662,539.005005" id="Fill-476" fill="#EDEDED" mask="url(#mask-2)"></path>
        <path d="M658,870 C658,839.076868 632.927032,814 601.998999,814 C571.070966,814 546,839.076868 546,870 C546,900.933143 571.070966,926 601.998999,926 C632.927032,926 658,900.933143 658,870" id="Fill-477" fill="#EDEDED" mask="url(#mask-2)"></path>
        <text id="3." mask="url(#mask-2)" font-family="OpenSans, Open Sans" font-size="28.4086" font-weight="normal" letter-spacing="1.9317848" fill="#272724">
            <tspan x="273" y="488">3</tspan>
            <tspan x="291.175179" y="488" letter-spacing="1.92326222">.</tspan>
        </text>
        <text id="4." mask="url(#mask-2)" font-family="OpenSans, Open Sans" font-size="28.4086" font-weight="normal" letter-spacing="2.5283654" fill="#272724">
            <tspan x="596" y="488">4</tspan>
            <tspan x="614.771759" y="488" letter-spacing="2.51984282">.</tspan>
        </text>
        <text id="6." mask="url(#mask-2)" font-family="OpenSans, Open Sans" font-size="28.4086" font-weight="normal" letter-spacing="3.4658492" fill="#272724">
            <tspan x="594" y="819">6</tspan>
            <tspan x="613.709243" y="819" letter-spacing="3.45732662">.</tspan>
        </text>
        <polygon id="Fill-478" fill="#F6F6F6" mask="url(#mask-2)" points="575 76 615 76 615 36 575 36"></polygon>
        <polygon id="Stroke-479" stroke="#1D1D1B" stroke-linecap="round" stroke-linejoin="round" mask="url(#mask-2)" points="575 76 615 76 615 36 575 36"></polygon>
        <polygon id="Fill-480" fill="#F4CBBA" mask="url(#mask-2)" points="630 25 588 25 588 68 620.600283 68 630 58.51"></polygon>
        <polygon id="Stroke-481" stroke="#1D1D1B" stroke-linecap="round" stroke-linejoin="round" mask="url(#mask-2)" points="630 25 588 25 588 68 620.600283 68 630 58.51"></polygon>
        <polygon id="Fill-482" fill="#F6F6F6" mask="url(#mask-2)" points="630 59 621 68 621 59"></polygon>
        <polygon id="Stroke-483" stroke="#1D1D1B" stroke-linecap="round" stroke-linejoin="round" mask="url(#mask-2)" points="630 59 621 68 621 59"></polygon>
        <line x1="595" y1="36.5" x2="622" y2="36.5" id="Stroke-484" stroke="#2B2B25" stroke-linecap="round" stroke-linejoin="round" mask="url(#mask-2)"></line>
        <line x1="595" y1="42.5" x2="622" y2="42.5" id="Stroke-485" stroke="#2B2B25" stroke-linecap="round" stroke-linejoin="round" mask="url(#mask-2)"></line>
        <line x1="595" y1="49.5" x2="622" y2="49.5" id="Stroke-486" stroke="#2B2B25" stroke-linecap="round" stroke-linejoin="round" mask="url(#mask-2)"></line>
        <text id="Apply" mask="url(#mask-2)" font-family="OpenSans, Open Sans" font-size="24" font-weight="normal" letter-spacing="0.00257679535" fill="#0D110D">
            <tspan x="246" y="203">A</tspan>
            <tspan x="261.190077" y="203" letter-spacing="-0.00257679535">pp</tspan>
            <tspan x="290.598986" y="203">l</tspan>
            <tspan x="296.671875" y="203" letter-spacing="-0.00257679535">y</tspan>
        </text>
        <text id="Comeinforalogicaltes" mask="url(#mask-2)" font-family="OpenSans, Open Sans" font-size="24" font-weight="normal" fill="#343434">
            <tspan x="470" y="204">Com</tspan>
            <tspan x="521.960938" y="204" letter-spacing="5.592">e</tspan>
            <tspan x="541.017781" y="204">i</tspan>
            <tspan x="547.088094" y="204" letter-spacing="5.592">n</tspan>
            <tspan x="567.410562" y="204">fo</tspan>
            <tspan x="590.039469" y="204" letter-spacing="5.592">ra</tspan>
            <tspan x="623.887531" y="204">logica</tspan>
            <tspan x="688.446125" y="204" letter-spacing="5.592">l</tspan>
            <tspan x="700.108438" y="204">tes</tspan>
            <tspan x="733.495156" y="204" letter-spacing="5.592">t</tspan>
        </text>
        <text id="atouroffice" mask="url(#mask-2)" font-family="OpenSans, Open Sans" font-size="24" font-weight="normal" fill="#343434">
            <tspan x="534" y="247">a</tspan>
            <tspan x="547.347656" y="247" letter-spacing="5.592">t</tspan>
            <tspan x="561.412312" y="247">ou</tspan>
            <tspan x="590.638875" y="247" letter-spacing="5.592">r</tspan>
            <tspan x="605.547281" y="247">o</tspan>
            <tspan x="620.043375" y="247">ffice</tspan>
        </text>
        <text id="Clearthetest" mask="url(#mask-2)" font-family="OpenSans, Open Sans" font-size="24" font-weight="normal" fill="#343434">
            <tspan x="207" y="538">Clea</tspan>
            <tspan x="255.023438" y="538" letter-spacing="5.592">r</tspan>
            <tspan x="270.412312" y="538">th</tspan>
            <tspan x="293.615437" y="538" letter-spacing="5.592">e</tspan>
            <tspan x="312.672281" y="538">tes</tspan>
            <tspan x="346.059" y="538">t</tspan>
        </text>
        <text id="Joinonprobation" mask="url(#mask-2)" font-family="OpenSans, Open Sans" font-size="24" font-weight="normal" fill="#343434">
            <tspan x="508" y="538">Joi</tspan>
            <tspan x="534.976562" y="538" letter-spacing="5.592">n</tspan>
            <tspan x="555.299031" y="538">o</tspan>
            <tspan x="569.795125" y="538" letter-spacing="5.592">n</tspan>
            <tspan x="590.117594" y="538">probatio</tspan>
            <tspan x="685.730875" y="538">n</tspan>
        </text>
        <text id="Appearforafoundation" mask="url(#mask-2)" font-family="OpenSans, Open Sans" font-size="24" font-weight="normal" fill="#343434">
            <tspan x="109" y="867">Appea</tspan>
            <tspan x="180.414062" y="867" letter-spacing="5.592">r</tspan>
            <tspan x="195.802937" y="867">fo</tspan>
            <tspan x="218.431844" y="867" letter-spacing="5.592">ra</tspan>
            <tspan x="252.279906" y="867">foundationa</tspan>
            <tspan x="389.541625" y="867" letter-spacing="5.592">l</tspan>
            <tspan x="401.203937" y="867">leve</tspan>
            <tspan x="445.746906" y="867" letter-spacing="5.592">l</tspan>
        </text>
        <text id="cloudcertiicationcoursein" mask="url(#mask-2)" font-family="OpenSans, Open Sans" font-size="24" font-weight="normal" fill="#343434">
            <tspan x="127" y="910">clou</tspan>
            <tspan x="173.722656" y="910" letter-spacing="5.592">d</tspan>
            <tspan x="194.021687" y="910">certiicatio</tspan>
            <tspan x="303.134969" y="910" letter-spacing="5.592">n</tspan>
            <tspan x="323.457437" y="910">cours</tspan>
            <tspan x="385.355875" y="910" letter-spacing="5.592">e</tspan>
            <tspan x="404.412719" y="910">i</tspan>
            <tspan x="410.483031" y="910" letter-spacing="5.592">n</tspan>
        </text>
        <text id="exactlyamonth." mask="url(#mask-2)" font-family="OpenSans, Open Sans" font-size="24" font-weight="normal" fill="#343434">
            <tspan x="189" y="953">exactl</tspan>
            <tspan x="253.875" y="953" letter-spacing="5.592">ya</tspan>
            <tspan x="290.500406" y="953">month</tspan>
            <tspan x="365.254312" y="953">.</tspan>
        </text>
        <text id="Getconirmed!!" mask="url(#mask-2)" font-family="OpenSans, Open Sans" font-size="24" font-weight="normal" fill="#343434">
            <tspan x="516" y="867">Ge</tspan>
            <tspan x="546.9375" y="867" letter-spacing="5.592">t</tspan>
            <tspan x="561.002156" y="867">conirmed!</tspan>
            <tspan x="674.427937" y="867">!</tspan>
        </text>
        <path d="M614.624217,705.194728 L611.308459,705.819615 C610.707052,705.930482 611.4969,705.285437 600,716.845846 L617.062923,734 L627.189617,723.82039 C629.095075,721.905414 628.936704,719.37563 628.928686,719.657837 C628.939712,719.274842 629.089061,718.912004 629.349671,718.649955 L638.830854,709.11539 C639.056382,708.893656 639.056382,708.530818 638.830854,708.299005 L625.767289,695.166301 C625.542764,694.944566 625.17791,694.944566 624.953385,695.166301 C614.562072,705.618039 615.250683,705.073782 614.624217,705.194728 Z" id="Fill-488" fill="#F9CFCF" mask="url(#mask-2)"></path>
        <path d="M617.570848,735 C617.422937,735 617.281023,734.939729 617.176087,734.829232 L600.163401,717.732295 C599.945533,717.511301 599.945533,717.159719 600.163401,716.938724 C602.792807,714.296836 604.777604,712.29784 606.282691,710.770969 C611.132751,705.878955 611.132751,705.878955 611.673423,705.808639 L611.730388,705.798594 L615.036384,705.175791 C615.072362,705.165746 615.104343,705.155701 615.135324,705.155701 C615.154313,705.155701 615.171302,705.155701 615.189291,705.145655 C615.404161,705.055249 616.443531,704.010547 619.528661,700.896534 C620.889836,699.520342 622.678751,697.712205 625.043317,695.341537 C625.256188,695.120542 625.540016,695 625.842833,695 L625.843832,695 C626.145649,695 626.430477,695.120542 626.643347,695.341537 L639.66945,708.430437 C640.110183,708.872426 640.110183,709.595681 639.66945,710.03767 L630.215182,719.540432 C630.057278,719.701155 629.966333,719.92215 629.959337,720.163235 C629.958338,720.19337 629.95534,720.223506 629.949343,720.253641 C629.959337,721.127574 629.596557,723.14666 628.061488,724.683576 L617.965608,734.829232 C617.860672,734.939729 617.718758,735 617.570848,735 Z M601.347683,717.340532 L617.570848,733.643898 L627.271966,723.890005 C628.743075,722.41336 628.843014,720.544952 628.84901,720.223506 C628.844013,720.19337 628.843014,720.163235 628.843014,720.123054 C628.859004,719.600703 629.065879,719.108488 629.425661,718.746861 L638.879929,709.244098 L625.854826,696.125063 C623.468272,698.505776 621.680356,700.313913 620.320181,701.68006 C615.869879,706.180311 615.869879,706.180311 615.305221,706.260673 L615.242259,706.270718 L611.936264,706.903566 C611.896288,706.903566 611.86031,706.913611 611.82733,706.913611 C611.813338,706.923656 611.800346,706.923656 611.788353,706.923656 C611.574483,707.024108 610.440171,708.169262 607.073212,711.56454 C605.645078,713.01105 603.783206,714.889503 601.347683,717.340532 Z" id="Fill-489" fill="#000000" mask="url(#mask-2)"></path>
        <path d="M616.040605,725.577047 C615.314839,726.109796 614.468113,726.167914 613.779417,725.586733 C613.70723,725.528615 613.704304,725.422066 613.771613,725.354261 L614.270088,724.860258 C614.326667,724.80214 614.415437,724.792454 614.48177,724.840885 C615.034873,725.228339 615.608462,724.957121 615.372393,724.714963 L614.168637,723.523543 C614.116936,723.475111 614.036946,723.465425 613.973539,723.494484 C613.246798,723.90131 612.447871,724.279078 611.563101,723.397621 C610.857821,722.700204 610.827581,721.750943 611.402145,720.966349 C611.448969,720.908231 611.441165,720.811368 611.384586,720.762936 L611.060723,720.433601 C610.997316,720.375483 610.997316,720.268933 611.060723,720.210815 C611.194365,720.075206 611.309473,719.920225 611.445067,720.055833 L611.762101,720.375483 C611.817704,720.423914 611.907449,720.433601 611.971832,720.385169 C612.646871,719.891166 613.417509,719.85242 614.136446,720.385169 C614.215461,720.443287 614.223265,720.559523 614.15303,720.627327 L613.659431,721.121331 C613.604804,721.179449 613.51896,721.179449 613.453603,721.140703 C613.2507,721.014781 613.005852,720.956663 612.76393,721.005095 C612.636141,721.034154 612.586391,721.189135 612.679063,721.285999 L613.83697,722.428987 C613.888672,722.487105 613.969637,722.496791 614.033044,722.458046 C614.752957,722.051219 615.540178,721.673452 616.423973,722.545223 C617.037556,723.155462 617.229728,724.143469 616.611267,724.995867 C616.564443,725.063671 616.572247,725.150848 616.62785,725.19928 L616.951713,725.528615 C617.016096,725.586733 617.016096,725.693283 616.951713,725.751401 C616.819046,725.88701 616.703938,726.041991 616.568345,725.906383 L616.251311,725.59642 C616.193757,725.538302 616.104987,725.528615 616.040605,725.577047 Z M613.257529,722.622713 L612.243994,721.615334 C611.993293,721.363489 611.620655,722.099651 612.208876,722.680831 C612.520058,722.990794 612.848798,723.000481 613.193146,722.884245 C613.308254,722.845499 613.342397,722.700204 613.257529,722.622713 Z M614.748079,723.339503 L615.759663,724.337196 C615.843555,724.424373 615.985002,724.395314 616.027923,724.288764 C616.170345,723.920683 616.070845,723.542916 615.785026,723.262012 C615.477746,722.961735 615.154859,722.952049 614.811486,723.068285 C614.697354,723.10703 614.663211,723.252326 614.748079,723.339503 Z" id="Fill-490" fill="#4671C6" mask="url(#mask-2)"></path>
        <path d="M622.034755,735.308943 L610,723.279434 L614.277135,719 L626.31189,731.029509 C627.22937,731.950918 627.22937,733.435411 626.31189,734.35682 L625.359595,735.308943 C624.442115,736.230352 622.953259,736.230352 622.034755,735.308943 Z" id="Fill-491" fill="#FFFFFF" mask="url(#mask-2)"></path>
        <path d="M585.915886,719.262489 C586.773558,720.112052 587.64415,720.70477 587.231712,721.771662 C586.393917,723.184307 586.624484,724.982218 587.79223,726.138019 L598.931034,737.211967 C599.569071,737.8442 600.370095,738.298617 601.24665,738.506068 L603.283,739 L607.361662,734.939881 L616,721.20858 C614.542057,719.756421 605.464448,710.737228 604.07011,709.344341 C603.317783,708.603443 602.257371,708.247813 601.201927,708.386113 L600.504261,708.475021 C599.860262,708.55405 599.655534,708.188541 598.353621,706.89444 L598.353621,706.89444 L595.437735,704 L583,716.36805 L585.915886,719.262489 Z" id="Fill-492" fill="#FFFFFF" mask="url(#mask-2)"></path>
        <path d="M607.010516,746 C606.287408,746 605.564301,745.716806 605.013315,745.160532 L599.079086,739.092085 C598.980165,738.990944 598.922792,738.849347 598.917846,738.70775 C598.591409,738.495355 598.290691,738.252617 598.019649,737.969423 L586.932661,726.631542 C585.604161,725.276255 585.332131,723.182641 586.261981,721.513819 C586.367826,721.200282 586.286712,720.84629 586.05227,720.603552 L582.161735,716.628719 C581.946088,716.40621 581.946088,716.052217 582.161735,715.829707 L594.5426,703.166882 C594.758247,702.944373 595.108425,702.944373 595.324071,703.166882 C596.191602,704.056921 596.888001,704.775021 597.451847,705.351523 C598.823871,706.767494 599.578633,707.546278 599.769549,707.606962 C599.786366,707.596848 599.859567,707.596848 599.903092,707.586734 L600.598502,707.495707 C601.808297,707.333882 603.051725,707.758673 603.916289,708.648712 L625.174263,730.383865 C626.275246,731.506527 626.275246,733.337175 625.174263,734.459838 L624.254304,735.400447 C623.494596,736.179231 622.405483,736.421969 621.442,736.12866 C621.463762,736.89733 621.188764,737.666 620.617004,738.252617 L619.697045,739.193226 C618.839406,740.073151 617.560367,740.265318 616.515768,739.769728 C616.481146,740.457486 616.208126,741.145243 615.692751,741.661061 L614.773782,742.60167 C613.672799,743.734447 611.881352,743.734447 610.780369,742.60167 L610.727941,742.5511 C610.650783,743.157944 610.383698,743.754675 609.926687,744.219922 L609.006728,745.160532 C608.456731,745.716806 607.733623,746 607.010516,746 Z M600.196885,738.636952 L605.794785,744.361519 C606.465465,745.049277 607.555567,745.049277 608.225257,744.361519 L609.145216,743.42091 C609.814907,742.733153 609.814907,741.620604 609.145216,740.932847 C608.92957,740.710338 608.92957,740.356345 609.145216,740.133835 C609.360862,739.911325 609.71104,739.911325 609.926687,740.133835 L611.561839,741.812772 C612.232519,742.490415 613.321632,742.490415 613.992311,741.812772 L614.91227,740.872163 C615.581961,740.184406 615.581961,739.071857 614.91227,738.3841 C614.696624,738.16159 614.696624,737.807597 614.91227,737.585088 C615.127916,737.362578 615.478094,737.362578 615.69374,737.585088 L616.486092,738.394214 C617.155783,739.081971 618.245884,739.081971 618.916564,738.394214 L619.835534,737.453605 C620.506213,736.765847 620.506213,735.653299 619.835534,734.965542 C619.727711,734.854287 619.674294,734.71269 619.674294,734.571093 C619.674294,734.419381 619.727711,734.277784 619.835534,734.166529 C620.052169,733.94402 620.401358,733.94402 620.617004,734.166529 L621.042361,734.601435 C621.712052,735.289192 622.802154,735.289192 623.472833,734.601435 L624.392792,733.660826 C625.062483,732.983182 625.062483,731.86052 624.392792,731.182877 L603.135807,709.447724 C602.51162,708.810537 601.617381,708.497001 600.743914,708.61837 L600.048505,708.709397 C599.250218,708.820652 599.202736,708.770081 596.667409,706.150535 C596.191602,705.665059 595.620832,705.068329 594.933336,704.370457 L583.33493,716.224156 L586.833741,719.80454 C587.386705,720.370928 587.561794,721.210396 587.280861,721.958838 C587.269979,721.98918 587.25712,722.019523 587.241292,722.049865 C586.535991,723.273668 586.729874,724.831236 587.714132,725.83253 L598.80112,737.17041 C599.122611,737.504175 599.496529,737.777255 599.911005,737.989651 C600.069278,738.070563 600.179079,738.232389 600.207766,738.404328 C600.219637,738.485241 600.21568,738.566153 600.196885,738.636952 Z" id="Fill-493" fill="#000000" mask="url(#mask-2)"></path>
        <path d="M617.158746,738.333278 L607,728.165141 L611.170327,724 L621.329073,734.158149 C622.223642,735.0571 622.223642,736.50541 621.329073,737.404362 L620.400559,738.333278 C619.504992,739.222241 618.054313,739.222241 617.158746,738.333278 Z" id="Fill-494" fill="#FFFFFF" mask="url(#mask-2)"></path>
        <path d="M612.17934,742.328872 L604,734.156023 L608.152802,730 L616.331147,738.182792 C617.222951,739.067686 617.222951,740.519312 616.331147,741.404207 L615.407529,742.328872 C614.515726,743.223709 613.070149,743.223709 612.17934,742.328872 Z" id="Fill-495" fill="#FFFFFF" mask="url(#mask-2)"></path>
        <path d="M606.083197,744.323116 L600,738.238765 L604.234611,734 L610.317808,740.084351 C611.227397,740.997004 611.227397,742.467389 610.317808,743.380041 L609.375769,744.323116 C608.46618,745.225628 606.991772,745.225628 606.083197,744.323116 Z" id="Fill-496" fill="#F9CFCF" mask="url(#mask-2)"></path>
        <path d="M578.000224,718.311121 L572.519323,712.830374 C571.826892,712.133925 571.826892,711.013551 572.519323,710.327196 L590.322663,692.522336 C591.014085,691.825888 592.135499,691.825888 592.82793,692.522336 L598.308831,698.003084 C599.23039,698.921589 599.23039,700.415421 598.308831,701.344019 L581.340243,718.311121 C580.417675,719.229626 578.921783,719.229626 578.000224,718.311121 Z" id="Fill-497" fill="#FFFFFF" mask="url(#mask-2)"></path>
        <path d="M580.195869,719 C579.449283,719 578.703702,718.71858 578.135975,718.155741 L572.679765,712.698211 C571.773412,711.793648 571.773412,710.316195 572.679765,709.401581 L590.4029,691.682196 C591.309253,690.767583 592.784339,690.777633 593.690693,691.682196 L599.146902,697.139727 C599.696542,697.682465 600,698.416166 600,699.20012 C600,699.974024 599.696542,700.707725 599.146902,701.260514 L582.254759,718.155741 C581.687032,718.71858 580.941451,719 580.195869,719 Z M592.046796,692.124427 C591.739319,692.124427 591.430837,692.234985 591.196713,692.476202 L573.473578,710.195587 C573.005329,710.667969 573.005329,711.431823 573.473578,711.904206 L578.929788,717.361736 C579.628142,718.055234 580.762592,718.055234 581.460946,717.361736 L598.353089,700.466509 C598.690711,700.124785 598.877609,699.672503 598.877609,699.20012 C598.877609,698.717687 598.690711,698.265405 598.353089,697.933732 L592.89688,692.476202 C592.662755,692.234985 592.355278,692.124427 592.046796,692.124427 Z" id="Fill-498" fill="#000000" mask="url(#mask-2)"></path>
        <path d="M619.111345,740 C618.361105,740 617.609838,739.717837 617.037395,739.15351 C616.813351,738.931811 616.813351,738.579106 617.037395,738.357407 C617.261439,738.135707 617.625254,738.135707 617.849298,738.357407 C618.545068,739.04266 619.677621,739.04266 620.374419,738.357407 L621.330203,737.420222 C622.025973,736.745045 622.025973,735.62647 621.330203,734.951293 L612.168033,725.962378 C611.943989,725.740679 611.943989,725.387974 612.168033,725.166275 C612.392077,724.944575 612.755892,724.944575 612.979936,725.166275 L622.142106,734.15519 C623.285965,735.273766 623.285965,737.097749 622.142106,738.216325 L621.186322,739.15351 C620.614907,739.717837 619.862612,740 619.111345,740 Z" id="Fill-499" fill="#000000" mask="url(#mask-2)"></path>
        <path d="M614.268229,743 C613.54708,743 612.825931,742.723652 612.277424,742.180825 L604.161297,734.05816 C603.946234,733.841029 603.946234,733.495594 604.161297,733.278463 C604.376359,733.061332 604.725588,733.061332 604.94065,733.278463 L613.056778,741.401128 C613.724654,742.06239 614.810817,742.072259 615.479679,741.401128 L616.397146,740.483257 C617.065022,739.812125 617.065022,738.726472 616.397146,738.05534 L608.282005,729.942545 C608.066943,729.725414 608.066943,729.370109 608.282005,729.162848 C608.497067,728.945717 608.846296,728.945717 609.061358,729.162848 L617.1765,737.275643 C618.2745,738.371167 618.2745,740.16743 617.1765,741.262954 L616.259033,742.180825 C615.710526,742.723652 614.989377,743 614.268229,743 Z" id="Fill-500" fill="#000000" mask="url(#mask-2)"></path>
        <path d="M608.205868,746 C607.472668,746 606.739468,745.719181 606.181795,745.157543 L600.164744,739.139992 C599.945085,738.919348 599.945085,738.568324 600.164744,738.347681 L604.35331,734.165483 C604.571966,733.944839 604.927031,733.944839 605.145687,734.165483 L611.162738,740.183034 C612.279087,741.296281 612.279087,743.111575 611.162738,744.224822 L610.230943,745.157543 C609.672267,745.719181 608.939067,746 608.205868,746 Z M601.352307,738.748851 L606.974173,744.365232 C607.65321,745.047221 608.758526,745.047221 609.438566,744.365232 L610.370361,743.432511 C611.050401,742.750522 611.050401,741.647305 610.370361,740.975345 L604.749498,735.348934 L601.352307,738.748851 Z" id="Fill-501" fill="#000000" mask="url(#mask-2)"></path>
        <path d="M605.947799,732.840282 L599.545576,739.055022 C598.845031,739.730537 598.815631,740.863324 599.47765,741.580409 L601.194034,743.440674 C601.857067,744.157759 602.962122,744.188937 603.661653,743.513422 L610.063876,737.298682 C611.265244,736.134717 611.316948,734.191312 610.180465,732.9546 C609.043981,731.72828 607.149166,731.676317 605.947799,732.840282 Z" id="Fill-502" fill="#F9CFCF" mask="url(#mask-2)"></path>
        <path d="M600.873041,729.7715 L595.553689,734.453496 C594.842727,735.074577 594.812889,736.116082 595.484753,736.775384 L597.226661,738.485745 C597.899554,739.145047 599.021042,739.173712 599.730975,738.552631 L605.050327,733.870635 C606.26853,732.800465 606.322033,731.013662 605.168649,729.886161 C604.014236,728.749105 602.091244,728.701329 600.873041,729.7715 Z" id="Fill-503" fill="#F9CFCF" mask="url(#mask-2)"></path>
        <path d="M595.1656,726.796308 L591.522485,730.307301 C590.852074,730.948353 590.822968,732.023349 591.457481,732.70385 L593.099066,734.469209 C593.733579,735.149711 594.791101,735.179298 595.461512,734.538246 L599.104628,731.027252 C600.253349,729.92267 600.3038,728.078412 599.215231,726.914656 C598.128603,725.741037 596.314322,725.691726 595.1656,726.796308 Z" id="Fill-504" fill="#F9CFCF" mask="url(#mask-2)"></path>
        <path d="M589.79486,723.850408 L587.561714,725.988482 C586.841008,726.673087 586.809673,727.821117 587.491732,728.547851 L589.260074,730.433148 C589.943179,731.159882 591.081686,731.191479 591.802393,730.506874 L594.035538,728.368801 C595.273273,727.189174 595.326543,725.219618 594.155656,723.976797 C592.984769,722.723444 591.032595,722.670782 589.79486,723.850408 Z" id="Fill-505" fill="#F9CFCF" mask="url(#mask-2)"></path>
        <path d="M601.990387,744 C601.968306,744 601.947229,744 601.925149,744 C601.313916,743.979477 600.745841,743.722943 600.326309,743.261181 L598.627102,741.434656 C598.206566,740.972895 597.984756,740.377735 598.000815,739.751791 C598.017877,739.136109 598.271804,738.55121 598.715425,738.120233 L605.053576,731.983931 L605.053576,731.983931 C606.46473,730.619168 608.700898,730.680736 610.036778,732.12759 C611.372657,733.574444 611.311434,735.852469 609.900279,737.217232 L603.562128,743.353533 C603.133563,743.77425 602.577532,744 601.990387,744 Z M605.824391,732.825363 L599.48624,738.951404 C599.260415,739.177154 599.130943,739.464473 599.12191,739.792837 C599.11388,740.110939 599.227294,740.408519 599.441075,740.644531 L601.140282,742.481317 C601.355066,742.707067 601.645126,742.840465 601.956262,742.850726 C602.275428,742.860987 602.564484,742.737851 602.791313,742.522362 L609.129464,736.38606 C610.091979,735.462537 610.13313,733.902808 609.222804,732.917716 C608.311476,731.932624 606.786907,731.891578 605.824391,732.825363 Z" id="Fill-506" fill="#000000" mask="url(#mask-2)"></path>
        <path d="M598.039712,740 C598.01837,740 597.997027,740 597.974669,740 C597.35574,739.979275 596.780513,739.720207 596.354682,739.253885 L594.635097,737.409324 C594.209266,736.943002 593.983646,736.341966 594.000924,735.709841 C594.018201,735.088078 594.275325,734.497404 594.724531,734.062171 L599.978819,728.994809 L599.978819,728.994809 C601.408757,727.616569 603.672064,727.678745 605.024764,729.129524 C606.377463,730.590665 606.315469,732.901548 604.88553,734.279788 L599.631243,739.34715 C599.197281,739.772021 598.63425,740 598.039712,740 Z M600.759339,729.834188 L595.505052,734.90155 C595.275368,735.129529 595.144265,735.430048 595.136134,735.751291 C595.126987,736.072535 595.24183,736.373054 595.459319,736.611396 L597.17992,738.46632 C597.397409,738.694299 597.690104,738.829014 598.006174,738.839377 C598.323261,738.84974 598.622054,738.725387 598.850722,738.507771 L604.105009,733.440409 C605.079644,732.497402 605.122329,730.922272 604.199525,729.927452 C603.753368,729.450768 603.148668,729.170975 602.49925,729.150249 C601.852882,729.139886 601.230904,729.378229 600.759339,729.834188 Z" id="Fill-507" fill="#000000" mask="url(#mask-2)"></path>
        <path d="M593.824788,736 C593.804581,736 593.783412,736 593.763205,736 C593.177206,735.980469 592.632582,735.736328 592.229407,735.296874 L590.600349,733.558591 C590.197173,733.119138 589.98452,732.552731 590.000878,731.966793 C590.017236,731.371089 590.259718,730.814448 590.685987,730.404291 L594.299168,726.937491 L594.299168,726.937491 C595.652066,725.638661 597.794957,725.697255 599.07665,727.064444 C600.357381,728.441398 600.298684,730.619135 598.944824,731.917965 L595.331643,735.384765 C594.92077,735.785156 594.387694,736 593.824788,736 Z M595.038162,727.728507 L591.424981,731.195308 C591.207517,731.410152 591.083389,731.693355 591.074729,731.99609 C591.067031,732.298824 591.175763,732.582028 591.380719,732.806637 L593.01074,734.554686 C593.215695,734.76953 593.49378,734.896483 593.792072,734.906249 C594.090364,734.916015 594.376147,734.808593 594.592649,734.593749 L598.20583,731.126948 C599.12861,730.238275 599.169024,728.753899 598.295317,727.816398 C597.422573,726.878897 595.960943,726.839834 595.038162,727.728507 Z" id="Fill-508" fill="#000000" mask="url(#mask-2)"></path>
        <path d="M590.07649,732 C589.456014,732 588.836563,731.752009 588.377103,731.256027 L586.640795,729.416759 C586.211076,728.951776 585.984423,728.352464 586.000832,727.732486 C586.018267,727.102175 586.277739,726.513197 586.731046,726.079212 L588.923738,723.991954 C590.36673,722.617669 592.651724,722.679667 594.015746,724.126282 C595.380794,725.58323 595.318234,727.887481 593.876267,729.261765 L591.683575,731.349023 C591.23232,731.783008 590.653892,732 590.07649,732 Z M591.399489,724.146948 C590.793371,724.146948 590.186227,724.374273 589.712409,724.828924 L587.518692,726.916182 C587.041797,727.370833 587.02026,728.135472 587.472541,728.621121 L589.208849,730.470721 C589.662156,730.946038 590.418009,730.966704 590.895929,730.512053 L593.088621,728.424795 C594.072153,727.484495 594.115227,725.913885 593.184,724.92192 C592.701977,724.415605 592.051759,724.146948 591.399489,724.146948 Z" id="Fill-509" fill="#000000" mask="url(#mask-2)"></path>
        <path d="M613,707.494933 L611.461699,706 C611.165911,706.099002 611.701195,705.841596 604.043466,709.752184 C603.615648,709.969989 603.259475,710.296696 603.011791,710.692705 L597.1206,720.246418 C597.089896,720.295919 597.066355,720.34542 597.047933,720.394921 C597.042815,720.404821 597.040768,720.424622 597.036674,720.434522 C597.025416,720.474123 597.013134,720.513724 597.006993,720.553325 C597.006993,720.553325 597.006993,720.563225 597.006993,720.563225 C596.96503,720.880032 597.113436,721.196839 597.411271,721.375043 C598.866669,722.216562 600.694617,722.196761 602.124428,721.384943 C603.409927,720.642427 603.367965,720.424622 607.86619,713.128159 C608.005384,712.910354 608.189611,712.71235 608.409661,712.553946 L609.24892,711.969833 L613,707.494933 Z" id="Fill-510" fill="#F9CFCF" mask="url(#mask-2)"></path>
        <path d="M600.098228,723 C600.071948,723 600.044694,723 600.01744,723 C598.698548,722.979919 597.580166,722.477902 597.169411,721.714835 C596.93386,721.2831 596.944566,720.801163 597.197638,720.359387 L602.800255,710.680487 C603.087394,710.17847 603.500095,709.776856 603.994558,709.505766 L610.679543,705.871158 C611.118525,705.63019 611.256741,705.610109 612.941615,705.288818 C613.322195,705.208495 613.786485,705.118132 614.355896,705.007688 C614.651795,704.957486 614.935041,705.158293 614.990522,705.459504 C615.046003,705.760715 614.852306,706.051885 614.556406,706.112127 C613.986022,706.222571 613.521733,706.312934 613.140179,706.383216 C611.479639,706.704508 611.468932,706.714548 611.18666,706.865153 L604.501675,710.499761 C604.183389,710.670447 603.918637,710.931496 603.734673,711.252787 L598.131083,720.931687 C598.070735,721.042131 598.080469,721.092333 598.118429,721.162615 C598.300446,721.503987 599.066475,721.86544 600.033987,721.875481 C600.727988,721.885521 602.455688,721.714835 603.481602,719.947733 L607.417839,713.150414 C607.588176,712.849203 607.812047,712.598195 608.081666,712.397388 L608.880788,711.805007 C609.125099,711.62428 609.464799,711.684523 609.640003,711.935531 C609.81618,712.18654 609.760699,712.527912 609.517361,712.718679 L608.718238,713.31106 C608.569315,713.421504 608.445699,713.562069 608.350311,713.722714 L604.415047,720.520033 C603.515669,722.076288 601.906717,723 600.098228,723 Z" id="Fill-511" fill="#000000" mask="url(#mask-2)"></path>
        <path d="M307.440669,694.564103 C307.09011,694.201465 306.606717,694 306.103349,694 L254.896651,694 C254.393283,694 253.910889,694.201465 253.55933,694.564103 C253.199782,694.916667 252.997037,695.410256 253,695.913919 L253,736.086081 C252.997037,736.589744 253.199782,737.083333 253.55933,737.435897 C253.910889,737.798535 254.393283,738 254.896651,738 L305.155539,738 C306.726566,738 308,736.710623 308,735.129121 L308,695.913919 C308.002963,695.410256 307.801217,694.916667 307.440669,694.564103 Z" id="Fill-512" fill="#FFFFFF" mask="url(#mask-2)"></path>
        <path d="M307.440669,694.564103 C307.09011,694.201465 306.606717,694 306.103349,694 L254.896651,694 C254.393283,694 253.910889,694.201465 253.55933,694.564103 C253.199782,694.916667 252.997037,695.410256 253,695.913919 L253,736.086081 C252.997037,736.589744 253.199782,737.083333 253.55933,737.435897 C253.910889,737.798535 254.393283,738 254.896651,738 L305.155539,738 C306.726566,738 308,736.710623 308,735.129121 L308,695.913919 C308.002963,695.410256 307.801217,694.916667 307.440669,694.564103 Z" id="Stroke-513" stroke="#000000" stroke-width="0.8" stroke-linejoin="round" mask="url(#mask-2)"></path>
        <polygon id="Fill-514" fill="#F4CBBA" mask="url(#mask-2)" points="257 733 303 733 303 699 257 699"></polygon>
        <path d="M303,699 C303,699 257,699 257,733 L257,699 L303,699 Z" id="Fill-515" fill="#F4CBBA" mask="url(#mask-2)"></path>
        <path d="M282,735 L282,751.704289 C281.996966,752.147766 282.235862,752.571532 282.629938,752.808053 C283.025035,753.044574 283.519161,753.064284 283.933656,752.857328 L287.400707,751.172117 C287.778449,750.994726 288.221529,750.994726 288.600291,751.172117 L292.067343,752.857328 C292.481837,753.064284 292.975964,753.044574 293.370039,752.808053 C293.765136,752.571532 294.004032,752.147766 294,751.704289 L294,735 L282,735 Z" id="Fill-516" fill="#FFFFFF" mask="url(#mask-2)"></path>
        <path d="M282,735 L282,751.704289 C281.996966,752.147766 282.235862,752.571532 282.629938,752.808053 C283.025035,753.044574 283.519161,753.064284 283.933656,752.857328 L287.400707,751.172117 C287.778449,750.994726 288.221529,750.994726 288.600291,751.172117 L292.067343,752.857328 C292.481837,753.064284 292.975964,753.044574 293.370039,752.808053 C293.765136,752.571532 294.004032,752.147766 294,751.704289 L294,735 L282,735 Z" id="Stroke-517" stroke="#000000" stroke-width="0.8" stroke-linejoin="round" mask="url(#mask-2)"></path>
        <path d="M300,725.494962 C300,727.016526 297.167036,727.953648 296.61898,729.27368 C296.052791,730.644095 297.368527,733.314389 296.3379,734.342201 C295.307274,735.370012 292.643562,734.04998 291.277453,734.624345 C289.957687,735.16848 289.016724,738 287.499496,738 C285.982269,738 285.042313,735.16848 283.722547,734.624345 C282.35543,734.04998 279.690711,735.370012 278.660085,734.342201 C277.630465,733.304313 278.946202,730.644095 278.380012,729.27368 C277.832964,727.953648 275,727.016526 275,725.494962 C275,723.983474 277.832964,723.036276 278.380012,721.716243 C278.947209,720.355905 277.631473,717.685611 278.6621,716.657799 C279.691719,715.629988 282.356438,716.939944 283.722547,716.375655 C285.038283,715.83152 285.982269,713 287.499496,713 C289.016724,713 289.957687,715.83152 291.277453,716.375655 C292.64457,716.939944 295.309289,715.629988 296.338908,716.657799 C297.369535,717.685611 296.053798,720.355905 296.61898,721.716243 C297.167036,723.036276 300,723.983474 300,725.494962 Z" id="Fill-518" fill="#F4CBBA" mask="url(#mask-2)"></path>
        <path d="M300,725.494962 C300,727.016526 297.167036,727.953648 296.61898,729.27368 C296.052791,730.644095 297.368527,733.314389 296.3379,734.342201 C295.307274,735.370012 292.643562,734.04998 291.277453,734.624345 C289.957687,735.16848 289.016724,738 287.499496,738 C285.982269,738 285.042313,735.16848 283.722547,734.624345 C282.35543,734.04998 279.690711,735.370012 278.660085,734.342201 C277.630465,733.304313 278.946202,730.644095 278.380012,729.27368 C277.832964,727.953648 275,727.016526 275,725.494962 C275,723.983474 277.832964,723.036276 278.380012,721.716243 C278.947209,720.355905 277.631473,717.685611 278.6621,716.657799 C279.691719,715.629988 282.356438,716.939944 283.722547,716.375655 C285.038283,715.83152 285.982269,713 287.499496,713 C289.016724,713 289.957687,715.83152 291.277453,716.375655 C292.64457,716.939944 295.309289,715.629988 296.338908,716.657799 C297.369535,717.685611 296.053798,720.355905 296.61898,721.716243 C297.167036,723.036276 300,723.983474 300,725.494962 Z" id="Stroke-519" stroke="#000000" stroke-width="0.8" stroke-linejoin="round" mask="url(#mask-2)"></path>
        <path d="M287.5,721 C289.983811,721 292,723.016393 292,725.495082 C292,727.983607 289.983811,730 287.5,730 C285.016189,730 283,727.983607 283,725.495082 C283,723.016393 285.016189,721 287.5,721 Z" id="Fill-520" fill="#FFFFFF" mask="url(#mask-2)"></path>
        <path d="M287.5,721 C289.983811,721 292,723.016393 292,725.495082 C292,727.983607 289.983811,730 287.5,730 C285.016189,730 283,727.983607 283,725.495082 C283,723.016393 285.016189,721 287.5,721 Z" id="Stroke-521" stroke="#000000" stroke-width="0.8315" stroke-linejoin="round" mask="url(#mask-2)"></path>
    </g>
</svg>