<?xml version="1.0" encoding="UTF-8" standalone="no"?>
<!DOCTYPE svg PUBLIC "-//W3C//DTD SVG 1.1//EN" "http://www.w3.org/Graphics/SVG/1.1/DTD/svg11.dtd">
<svg width="100%" height="100%" viewBox="0 0 122 136" version="1.1" xmlns="http://www.w3.org/2000/svg" xmlns:xlink="http://www.w3.org/1999/xlink" xml:space="preserve" xmlns:serif="http://www.serif.com/" style="fill-rule:evenodd;clip-rule:evenodd;stroke-linejoin:round;stroke-miterlimit:2;">
    <g transform="matrix(1,0,0,1,-261.277,-3312.13)">
        <g transform="matrix(1.3544,0,0,10.4095,0,2.83097)">
            <g transform="matrix(0.231017,0,0,0.0300581,-968.793,241.38)">
                <g transform="matrix(1,0,0,1,4992.69,2546.1)">
                    <path d="M260.529,358.4L171.729,358.4C162.529,358.4 154.929,366 154.929,375.2C154.929,384.4 162.529,392 171.729,392L260.129,392C269.729,391.6 277.329,384.4 277.329,375.2C277.329,366 269.729,358.4 260.529,358.4ZM260.529,378L171.729,378C170.129,378 168.529,376.8 168.529,374.8C168.529,372.8 169.729,371.6 171.729,371.6L260.129,371.6C261.729,371.6 263.329,372.8 263.329,374.8C263.329,376.8 262.129,378 260.529,378Z" style="fill:rgb(0,76,121);fill-rule:nonzero;"/>
                </g>
                <g transform="matrix(1,0,0,1,4992.69,2546.1)">
                    <path d="M247.329,398.8L184.929,398.8C175.729,398.8 168.129,406.4 168.129,415.6C168.129,424.8 175.729,432.4 184.929,432.4L247.329,432.4C256.529,432.4 264.129,424.8 264.129,415.6C264.129,406 256.529,398.8 247.329,398.8ZM247.329,418.4L184.929,418.4C183.329,418.4 181.729,417.2 181.729,415.2C181.729,413.2 182.929,412 184.929,412L247.329,412C248.929,412 250.529,413.2 250.529,415.2C250.529,417.2 248.929,418.4 247.329,418.4Z" style="fill:rgb(0,76,121);fill-rule:nonzero;"/>
                </g>
                <g transform="matrix(1,0,0,1,4992.69,2546.1)">
                    <path d="M216.129,60C220.129,60 222.929,56.8 222.929,53.2L222.929,6.8C222.929,3.2 219.729,0 216.129,0C212.529,0 209.329,3.2 209.329,6.8L209.329,53.2C209.329,56.8 212.529,60 216.129,60Z" style="fill:rgb(0,76,121);fill-rule:nonzero;"/>
                </g>
                <g transform="matrix(1,0,0,1,4992.69,2546.1)">
                    <path d="M134.929,83.6C136.129,83.6 137.329,83.2 138.529,82.4C141.729,80.4 142.529,76 140.529,72.8L115.729,34C113.729,30.8 109.329,30 106.129,32C102.929,34 102.129,38.4 104.129,41.6L128.929,80.4C130.529,82.8 132.529,83.6 134.929,83.6Z" style="fill:rgb(0,76,121);fill-rule:nonzero;"/>
                </g>
                <g transform="matrix(1,0,0,1,4992.69,2546.1)">
                    <path d="M86.529,126L46.129,104C42.929,102.4 38.529,103.6 36.929,106.8C34.929,110 36.129,114.4 39.729,116L80.129,138C81.329,138.4 82.129,138.8 83.329,138.8C85.729,138.8 88.129,137.6 89.329,135.2C90.929,132 89.729,127.6 86.529,126Z" style="fill:rgb(0,76,121);fill-rule:nonzero;"/>
                </g>
                <g transform="matrix(3.26597,0,0,3.49297,5218.98,2554.4)">
                    <path d="M50.976,26.194C50.447,17.194 43.028,10 34.085,10C28.655,10 23.397,12.663 20.139,17.008C20.064,16.969 19.985,16.942 19.909,16.906C19.711,16.81 19.51,16.719 19.305,16.637C19.191,16.592 19.077,16.551 18.962,16.511C18.759,16.44 18.553,16.377 18.343,16.32C18.228,16.289 18.114,16.257 17.998,16.231C17.773,16.18 17.543,16.141 17.311,16.106C17.21,16.091 17.111,16.071 17.009,16.06C16.677,16.023 16.341,16 16,16C11.037,16 7,20.037 7,25C7,25.127 7.008,25.252 7.016,25.377L7.016,25.381C2.857,27.649 0,32.399 0,37.154C0,44.237 5.762,50 12.845,50L37.353,50C37.457,50 37.56,49.994 37.664,49.986L37.726,49.978L37.86,49.986C37.962,49.994 38.064,50 38.169,50L47.972,50C54.604,50 60,44.604 60,37.972C60,32.483 56.173,27.56 50.976,26.194ZM47.972,48L38.169,48C38.11,48 38.053,47.995 37.995,47.991L37.724,47.98L37.526,47.991C37.469,47.995 37.411,48 37.353,48L12.845,48C6.865,48 2,43.135 2,37.154C2,33 4.705,28.688 8.433,26.901L9,26.63L9,26C9,25.873 9.008,25.744 9.015,25.614L9.024,25.454L9.012,25.244C9.006,25.163 9,25.082 9,25C9,21.141 12.141,18 16,18C16.309,18 16.614,18.027 16.917,18.067C16.995,18.077 17.073,18.09 17.15,18.103C17.417,18.147 17.68,18.205 17.939,18.28C17.974,18.29 18.01,18.297 18.045,18.307C18.33,18.394 18.608,18.504 18.88,18.628C18.951,18.66 19.02,18.695 19.09,18.729C19.33,18.848 19.565,18.978 19.792,19.125C21.719,20.373 23,22.538 23,25C23,25.553 23.447,26 24,26C24.553,26 25,25.553 25,25C25,22.246 23.754,19.781 21.8,18.129C24.667,14.379 29.388,12 34.085,12C41.83,12 48.262,18.135 48.933,25.888C47.911,25.816 46.381,25.779 44.85,26.012C44.304,26.095 43.929,26.605 44.012,27.151C44.087,27.646 44.513,28.001 44.999,28.001C45.049,28.001 45.1,27.997 45.15,27.989C47.377,27.652 49.698,27.968 49.834,27.987C54.49,28.872 58,33.161 58,37.972C58,43.501 53.501,48 47.972,48Z" style="fill:rgb(0,76,121);fill-rule:nonzero;stroke:rgb(0,76,121);stroke-width:0.82px;"/>
                </g>
                <path d="M5317.14,2723.71C5319.28,2732.3 5320.42,2741.27 5320.42,2750.5C5320.42,2781.7 5306.82,2811.7 5283.62,2832.9C5283.22,2833.3 5282.82,2833.7 5282.42,2834.1C5264.82,2851.7 5266.82,2889.3 5266.82,2889.7C5266.82,2891.7 5266.02,2893.7 5264.82,2894.9C5263.62,2896.1 5262.02,2896.9 5260.02,2896.9L5158.02,2896.9C5156.42,2896.9 5154.42,2896.1 5153.22,2894.9C5151.62,2893.3 5151.22,2891.7 5151.22,2889.7C5151.62,2889.3 5153.22,2851.7 5135.62,2834.1C5112.02,2813.3 5098.02,2782.5 5098.02,2750.5C5098.02,2741.9 5099,2733.52 5100.87,2725.47C5112.29,2676.24 5156.62,2639.3 5209.22,2639.3C5221.51,2639.3 5233.36,2641.32 5244.44,2645.05C5245.22,2645.31 5246,2645.58 5246.77,2645.86L5246.77,2660.13C5244.24,2659.06 5241.65,2658.1 5239.02,2657.24C5229.51,2654.17 5219.36,2652.5 5208.82,2652.5C5164.87,2652.5 5127.82,2681.38 5115.54,2721.23C5112.73,2730.35 5111.22,2740.05 5111.22,2750.1C5111.22,2778.5 5123.62,2805.3 5144.82,2823.7C5161.62,2840.9 5164.42,2869.7 5164.82,2882.9L5253.22,2882.9C5253.62,2869.7 5256.42,2842.1 5272.02,2825.3C5272.02,2824.9 5272.82,2824.1 5273.22,2823.7C5294.42,2805.3 5306.42,2778.5 5306.42,2750.1C5306.42,2740.95 5305.16,2732.1 5302.82,2723.71L5317.14,2723.71Z" style="fill:rgb(0,76,121);fill-rule:nonzero;"/>
            </g>
        </g>
    </g>
</svg>
