<?xml version="1.0" encoding="UTF-8" standalone="no"?>
<!DOCTYPE svg PUBLIC "-//W3C//DTD SVG 1.1//EN" "http://www.w3.org/Graphics/SVG/1.1/DTD/svg11.dtd">
<svg width="100%" height="100%" viewBox="0 0 41 41" version="1.1" xmlns="http://www.w3.org/2000/svg" xmlns:xlink="http://www.w3.org/1999/xlink" xml:space="preserve" xmlns:serif="http://www.serif.com/" style="fill-rule:evenodd;clip-rule:evenodd;stroke-linejoin:round;stroke-miterlimit:1.41421;">
    <g transform="matrix(1,0,0,1,-8749.74,-863.635)">
        <g transform="matrix(1.3544,0,0,3.81023,8024.57,8.12579)">
            <g transform="matrix(0.985534,0,0,0.350322,535.788,224.661)">
                <path d="M23.895,29.731C22.658,29.731 21.164,29.421 19.521,28.801C15.919,27.443 12,24.759 8.486,21.245C4.971,17.73 2.287,13.81 0.928,10.208C-0.307,6.933 -0.31,4.245 0.921,3.015C1.098,2.838 1.278,2.648 1.464,2.452C2.587,1.271 3.856,-0.058 5.538,0.002C6.697,0.05 7.82,0.77 8.97,2.201C12.368,6.427 10.836,7.933 9.063,9.679L8.75,9.989C8.46,10.279 7.912,11.622 13.01,16.72C14.674,18.384 16.093,19.602 17.227,20.339C17.941,20.803 19.218,21.505 19.742,20.981L20.057,20.663C21.801,18.894 23.307,17.367 27.53,20.762C28.961,21.912 29.68,23.034 29.728,24.195C29.797,25.876 28.458,27.148 27.276,28.27C27.081,28.456 26.891,28.636 26.714,28.812C26.103,29.424 25.126,29.731 23.895,29.731ZM5.418,1C4.223,1 3.144,2.136 2.189,3.141C1.997,3.343 1.811,3.539 1.628,3.722C0.711,4.638 0.804,7.045 1.864,9.856C3.174,13.328 5.777,17.122 9.194,20.539C12.61,23.954 16.402,26.557 19.875,27.866C22.686,28.928 25.093,29.018 26.008,28.103C26.191,27.92 26.387,27.734 26.589,27.543C27.616,26.567 28.781,25.461 28.73,24.234C28.695,23.391 28.081,22.484 26.905,21.539C23.386,18.709 22.402,19.708 20.77,21.363L20.45,21.686C19.67,22.467 18.403,22.294 16.683,21.176C15.49,20.4 14.016,19.138 12.304,17.425C8.073,13.195 6.72,10.606 8.044,9.279L8.363,8.964C10.022,7.332 11.023,6.347 8.192,2.826C7.245,1.651 6.339,1.037 5.496,1.001C5.47,1 5.444,1 5.418,1Z" style="fill:rgb(115,115,115);fill-rule:nonzero;stroke:rgb(115,115,115);stroke-width:0.75px;"/>
            </g>
        </g>
    </g>
</svg>
