<?xml version="1.0" encoding="UTF-8" standalone="no"?>
<!DOCTYPE svg PUBLIC "-//W3C//DTD SVG 1.1//EN" "http://www.w3.org/Graphics/SVG/1.1/DTD/svg11.dtd">
<svg width="100%" height="100%" viewBox="0 0 127 128" version="1.1" xmlns="http://www.w3.org/2000/svg" xmlns:xlink="http://www.w3.org/1999/xlink" xml:space="preserve" xmlns:serif="http://www.serif.com/" style="fill-rule:evenodd;clip-rule:evenodd;stroke-linejoin:round;stroke-miterlimit:2;">
    <g transform="matrix(1,0,0,1,-817.923,-2707.19)">
        <g transform="matrix(1.3544,0,0,10.4095,0,2.83097)">
            <g transform="matrix(8.80353,0,0,5.86305,23.9608,-774.204)">
                <g transform="matrix(1.1075,0,0,0.144246,-7425.87,-3781.22)">
                    <path d="M6767.32,27440.8L6767.32,27450.4L6767.13,27450.7L6764.87,27450.7L6764.69,27450.4L6764.69,27440.8L6764.87,27440.5L6767.13,27440.5L6767.32,27440.8ZM6765,27441L6765,27450.2L6767,27450.2L6767,27441L6765,27441Z" style="fill:rgb(0,76,121);"/>
                </g>
                <g transform="matrix(1.1075,0,0,0.206967,-7422.18,-5502.92)">
                    <path d="M6767.32,27440.9L6767.32,27450.3L6767.13,27450.5L6764.87,27450.5L6764.69,27450.3L6764.69,27440.9L6764.87,27440.7L6767.13,27440.7L6767.32,27440.9ZM6765,27441L6765,27450.2L6767,27450.2L6767,27441L6765,27441Z" style="fill:rgb(0,76,121);"/>
                </g>
                <g transform="matrix(1.1075,0,0,0.144246,-7418.48,-3781.22)">
                    <path d="M6767.32,27440.8L6767.32,27450.4L6767.13,27450.7L6764.87,27450.7L6764.69,27450.4L6764.69,27440.8L6764.87,27440.5L6767.13,27440.5L6767.32,27440.8ZM6765,27441L6765,27450.2L6767,27450.2L6767,27441L6765,27441Z" style="fill:rgb(0,76,121);"/>
                </g>
            </g>
        </g>
    </g>
</svg>
