<?xml version="1.0" encoding="UTF-8" standalone="no"?>
<!DOCTYPE svg PUBLIC "-//W3C//DTD SVG 1.1//EN" "http://www.w3.org/Graphics/SVG/1.1/DTD/svg11.dtd">
<svg width="100%" height="100%" viewBox="0 0 149 106" version="1.1" xmlns="http://www.w3.org/2000/svg" xmlns:xlink="http://www.w3.org/1999/xlink" xml:space="preserve" xmlns:serif="http://www.serif.com/" style="fill-rule:evenodd;clip-rule:evenodd;stroke-linecap:round;stroke-linejoin:round;stroke-miterlimit:1.5;">
    <g transform="matrix(1,0,0,1,-390.501,-2047.61)">
        <g transform="matrix(1.3544,0,0,10.4095,0,2.83097)">
            <g transform="matrix(0.508888,0,0,0.0662125,572.096,55.294)">
                <path d="M-508.285,2246.59L-525.992,2282.45L-555.623,2282.45L-555.623,2246.59L-508.285,2246.59ZM-344.551,2282.45L-485.997,2282.45L-468.29,2246.59L-344.551,2246.59L-344.551,2282.45ZM-480.4,2190.12L-498.106,2225.98L-555.623,2225.98L-555.623,2190.12L-480.4,2190.12ZM-344.551,2225.98L-458.112,2225.98L-440.405,2190.12L-344.551,2190.12L-344.551,2225.98ZM-452.514,2133.64L-470.221,2169.5L-555.623,2169.5L-555.623,2133.64L-452.514,2133.64ZM-344.551,2169.5L-430.226,2169.5L-412.52,2133.64L-344.551,2133.64L-344.551,2169.5Z" style="fill:none;stroke:white;stroke-width:4.03px;"/>
            </g>
        </g>
    </g>
</svg>
