<?xml version="1.0" encoding="UTF-8" standalone="no"?>
<!DOCTYPE svg PUBLIC "-//W3C//DTD SVG 1.1//EN" "http://www.w3.org/Graphics/SVG/1.1/DTD/svg11.dtd">
<svg width="100%" height="100%" viewBox="0 0 146 145" version="1.1" xmlns="http://www.w3.org/2000/svg" xmlns:xlink="http://www.w3.org/1999/xlink" xml:space="preserve" xmlns:serif="http://www.serif.com/" style="fill-rule:evenodd;clip-rule:evenodd;stroke-linecap:round;stroke-linejoin:round;stroke-miterlimit:1.5;">
    <g transform="matrix(1,0,0,1,-807.227,-1501.79)">
        <g transform="matrix(1.3544,0,0,10.4095,0,2.83097)">
            <g transform="matrix(1,0,0,0.768534,178.603,4.24632)">
                <g transform="matrix(0.738333,0,0,0.124999,-2527.88,3.22938)">
                    <g transform="matrix(1,0,0,1,12.1761,-16.4819)">
                        <path d="M4063.34,1548.1L4063.46,1567.62L4076.32,1567.54L4056.66,1587.44L4036.75,1567.78L4049.61,1567.7L4049.49,1548.19" style="fill:none;stroke:white;stroke-width:4.17px;"/>
                    </g>
                    <g transform="matrix(1,0,0,1,14.4195,-16.9056)">
                        <path d="M4033.34,1548.1L4033.34,1528.59L4020.47,1528.59L4040.26,1508.81L4060.04,1528.59L4047.18,1528.59L4047.18,1548.1" style="fill:none;stroke:white;stroke-width:4.17px;"/>
                    </g>
                </g>
                <g transform="matrix(0.738333,0,0,0.124999,-2517.94,1.22234)">
                    <path d="M4036.68,1551.29L4006.71,1551.29C3989.57,1551.29 3975.63,1535.97 3975.63,1517.15C3975.63,1504.51 3982.54,1491.89 3992.61,1485.86L3992.61,1485.85C3992.59,1485.52 3992.57,1485.18 3992.57,1484.85C3992.57,1471.66 4002.34,1460.93 4014.35,1460.93C4015.18,1460.93 4015.99,1460.99 4016.79,1461.09C4017.04,1461.12 4017.28,1461.17 4017.52,1461.21C4018.08,1461.3 4018.64,1461.4 4019.18,1461.54C4019.47,1461.61 4019.74,1461.69 4020.02,1461.78C4020.53,1461.93 4021.03,1462.1 4021.52,1462.28C4021.8,1462.39 4022.07,1462.5 4022.35,1462.62C4022.84,1462.84 4023.33,1463.08 4023.81,1463.33C4023.99,1463.43 4024.18,1463.5 4024.37,1463.61C4032.25,1452.06 4044.97,1444.98 4058.12,1444.98C4079.76,1444.98 4097.71,1464.1 4098.99,1488.02C4111.57,1491.65 4120.83,1504.73 4120.83,1519.32C4120.83,1536.95 4107.77,1551.29 4091.72,1551.29L4068,1551.29C4067.75,1551.29 4067.5,1551.27 4067.25,1551.25L4066.93,1551.23L4066.78,1551.25C4066.53,1551.27 4066.28,1551.29 4066.03,1551.29L4060.04,1551.29L4060.04,1545.98L4066.03,1545.98C4066.17,1545.98 4066.31,1545.96 4066.44,1545.95L4066.92,1545.92L4067.58,1545.95C4067.72,1545.96 4067.86,1545.98 4068,1545.98L4091.72,1545.98C4105.11,1545.98 4115.99,1534.02 4115.99,1519.32C4115.99,1506.54 4107.5,1495.14 4096.23,1492.79C4095.9,1492.73 4090.28,1491.89 4084.89,1492.79C4084.77,1492.81 4084.65,1492.82 4084.53,1492.82C4083.35,1492.82 4082.32,1491.88 4082.14,1490.56C4081.94,1489.11 4082.85,1487.76 4084.17,1487.54C4087.87,1486.92 4091.58,1487.02 4094.05,1487.21C4092.43,1466.6 4076.86,1450.3 4058.12,1450.3C4046.75,1450.3 4035.32,1456.62 4028.39,1466.59C4033.12,1470.98 4036.13,1477.53 4036.13,1484.85C4036.13,1486.32 4035.05,1487.5 4033.71,1487.5C4032.37,1487.5 4031.29,1486.32 4031.29,1484.85C4031.29,1478.3 4028.19,1472.55 4023.53,1469.23C4022.98,1468.84 4022.41,1468.5 4021.83,1468.18C4021.66,1468.09 4021.49,1468 4021.32,1467.91C4020.66,1467.58 4019.99,1467.29 4019.3,1467.06C4019.21,1467.03 4019.13,1467.01 4019.04,1466.99C4018.41,1466.79 4017.78,1466.63 4017.13,1466.52C4016.95,1466.48 4016.76,1466.45 4016.57,1466.42C4015.84,1466.31 4015.1,1466.24 4014.35,1466.24C4005.01,1466.24 3997.41,1474.59 3997.41,1484.85C3997.41,1485.06 3997.42,1485.28 3997.44,1485.5L3997.47,1486.05L3997.45,1486.48C3997.43,1486.82 3997.41,1487.17 3997.41,1487.5L3997.41,1489.18L3996.04,1489.9C3987.01,1494.65 3980.47,1506.11 3980.47,1517.15C3980.47,1533.05 3992.24,1545.98 4006.71,1545.98L4036.68,1545.98L4036.68,1551.29Z" style="fill:rgb(253,254,255);fill-rule:nonzero;"/>
                </g>
            </g>
        </g>
    </g>
</svg>
