<?xml version="1.0" encoding="UTF-8" standalone="no"?>
<!DOCTYPE svg PUBLIC "-//W3C//DTD SVG 1.1//EN" "http://www.w3.org/Graphics/SVG/1.1/DTD/svg11.dtd">
<svg width="100%" height="100%" viewBox="0 0 132 151" version="1.1" xmlns="http://www.w3.org/2000/svg" xmlns:xlink="http://www.w3.org/1999/xlink" xml:space="preserve" xmlns:serif="http://www.serif.com/" style="fill-rule:evenodd;clip-rule:evenodd;stroke-linejoin:round;stroke-miterlimit:2;">
    <g transform="matrix(1,0,0,1,-253.313,-1503.55)">
        <g transform="matrix(1.3544,0,0,10.4095,0,2.83097)">
            <g transform="matrix(0.1898,0,0,0.0246953,-562.542,127.521)">
                <g transform="matrix(1,0,0,1,3948.65,778.1)">
                    <path d="M385.39,479.588L256,479.588C253.792,479.588 252,477.796 252,475.588L252,393.266C252,375.526 258.908,358.852 271.452,346.308L350.656,267.104C356.154,261.604 363.466,258.574 371.244,258.574C379.024,258.574 386.336,261.604 391.834,267.104C403.188,278.456 403.188,296.93 391.834,308.282L359.294,340.822C355.688,344.43 355.688,350.298 359.294,353.906C362.904,357.512 368.77,357.512 372.38,353.906L441.614,284.672C445.572,280.714 447.752,275.45 447.752,269.848L447.752,193.8C447.752,177.19 461.266,163.676 477.876,163.676C494.486,163.676 507.998,177.188 507.998,193.8L507.998,310.442C507.998,318.176 504.986,325.45 499.516,330.922L389.388,441.048L389.388,475.586C389.39,477.796 387.6,479.588 385.39,479.588ZM260,471.588L381.39,471.588L381.39,439.392C381.39,438.332 381.812,437.314 382.562,436.564L493.86,325.266C497.82,321.306 499.998,316.042 499.998,310.442L499.998,193.8C499.998,181.602 490.074,171.676 477.876,171.676C465.676,171.676 455.752,181.6 455.752,193.8L455.752,269.846C455.752,277.584 452.74,284.858 447.27,290.326L378.036,359.56C374.778,362.818 370.444,364.612 365.836,364.612C361.228,364.612 356.896,362.818 353.638,359.56C346.912,352.834 346.91,341.89 353.636,335.164L386.176,302.624C394.41,294.39 394.41,280.994 386.176,272.758C382.188,268.77 376.886,266.572 371.242,266.572C365.602,266.572 360.298,268.77 356.31,272.758L277.104,351.964C266.072,362.994 259.996,377.662 259.996,393.264L259.996,471.588L260,471.588Z" style="fill:white;fill-rule:nonzero;stroke:white;stroke-width:6.77px;"/>
                </g>
                <g transform="matrix(1,0,0,1,3948.65,778.1)">
                    <path d="M256,479.588L126.61,479.588C124.402,479.588 122.61,477.796 122.61,475.588L122.61,441.05L12.482,330.922C7.012,325.45 4,318.176 4,310.442L4,193.8C4,177.19 17.514,163.676 34.122,163.676C50.73,163.676 64.246,177.19 64.246,193.8L64.246,269.846C64.246,275.446 66.426,280.712 70.384,284.668L139.618,353.904C141.366,355.652 143.69,356.612 146.16,356.612C148.63,356.612 150.952,355.65 152.702,353.904C156.31,350.296 156.31,344.428 152.704,340.82L120.166,308.28C108.812,296.928 108.812,278.454 120.166,267.102C125.664,261.602 132.976,258.572 140.756,258.572C148.534,258.572 155.846,261.602 161.344,267.102L240.55,346.306C253.092,358.848 260.002,375.522 260.002,393.262L260.002,475.584C260,477.796 258.21,479.588 256,479.588ZM130.61,471.588L252,471.588L252,393.266C252,377.664 245.924,362.996 234.892,351.968L155.688,272.76C151.7,268.772 146.396,266.574 140.756,266.574C135.114,266.574 129.81,268.772 125.822,272.76C117.588,280.994 117.588,294.39 125.822,302.626L158.362,335.166C165.086,341.892 165.086,352.836 158.362,359.562C151.636,366.288 140.69,366.288 133.964,359.564L64.73,290.328C59.26,284.86 56.248,277.586 56.248,269.848L56.248,193.8C56.248,181.602 46.324,171.676 34.124,171.676C21.924,171.676 12,181.602 12,193.8L12,310.442C12,316.04 14.18,321.304 18.138,325.266L129.436,436.564C130.186,437.314 130.608,438.332 130.608,439.392L130.608,471.588L130.61,471.588Z" style="fill:white;fill-rule:nonzero;stroke:white;stroke-width:6.77px;"/>
                </g>
            </g>
        </g>
        <g transform="matrix(1.3544,0,0,10.4095,0,2.83097)">
            <g transform="matrix(1.18729,0,0,0.169653,199.123,142.493)">
                <path d="M50.976,26.194C50.447,17.194 43.028,10 34.085,10C28.655,10 23.397,12.663 20.139,17.008C20.064,16.969 19.985,16.942 19.909,16.906C19.711,16.81 19.51,16.719 19.305,16.637C19.191,16.592 19.077,16.551 18.962,16.511C18.759,16.44 18.553,16.377 18.343,16.32C18.228,16.289 18.114,16.257 17.998,16.231C17.773,16.18 17.543,16.141 17.311,16.106C17.21,16.091 17.111,16.071 17.009,16.06C16.677,16.023 16.341,16 16,16C11.037,16 7,20.037 7,25C7,25.127 7.008,25.252 7.016,25.377L7.016,25.381C2.857,27.649 0,32.399 0,37.154C0,44.237 5.762,50 12.845,50L37.353,50C37.457,50 37.56,49.994 37.664,49.986L37.726,49.978L37.86,49.986C37.962,49.994 38.064,50 38.169,50L47.972,50C54.604,50 60,44.604 60,37.972C60,32.483 56.173,27.56 50.976,26.194ZM47.972,48L38.169,48C38.11,48 38.053,47.995 37.995,47.991L37.724,47.98L37.526,47.991C37.469,47.995 37.411,48 37.353,48L12.845,48C6.865,48 2,43.135 2,37.154C2,33 4.705,28.688 8.433,26.901L9,26.63L9,26C9,25.873 9.008,25.744 9.015,25.614L9.024,25.454L9.012,25.244C9.006,25.163 9,25.082 9,25C9,21.141 12.141,18 16,18C16.309,18 16.614,18.027 16.917,18.067C16.995,18.077 17.073,18.09 17.15,18.103C17.417,18.147 17.68,18.205 17.939,18.28C17.974,18.29 18.01,18.297 18.045,18.307C18.33,18.394 18.608,18.504 18.88,18.628C18.951,18.66 19.02,18.695 19.09,18.729C19.33,18.848 19.565,18.978 19.792,19.125C21.719,20.373 23,22.538 23,25C23,25.553 23.447,26 24,26C24.553,26 25,25.553 25,25C25,22.246 23.754,19.781 21.8,18.129C24.667,14.379 29.388,12 34.085,12C41.83,12 48.262,18.135 48.933,25.888C47.911,25.816 46.381,25.779 44.85,26.012C44.304,26.095 43.929,26.605 44.012,27.151C44.087,27.646 44.513,28.001 44.999,28.001C45.049,28.001 45.1,27.997 45.15,27.989C47.377,27.652 49.698,27.968 49.834,27.987C54.49,28.872 58,33.161 58,37.972C58,43.501 53.501,48 47.972,48Z" style="fill:white;fill-rule:nonzero;stroke:white;stroke-width:0.27px;"/>
            </g>
        </g>
    </g>
</svg>
