<?xml version="1.0" encoding="UTF-8" standalone="no"?>
<!DOCTYPE svg PUBLIC "-//W3C//DTD SVG 1.1//EN" "http://www.w3.org/Graphics/SVG/1.1/DTD/svg11.dtd">
<svg width="100%" height="100%" viewBox="0 0 133 106" version="1.1" xmlns="http://www.w3.org/2000/svg" xmlns:xlink="http://www.w3.org/1999/xlink" xml:space="preserve" xmlns:serif="http://www.serif.com/" style="fill-rule:evenodd;clip-rule:evenodd;stroke-linecap:square;stroke-miterlimit:1.5;">
    <g transform="matrix(1,0,0,1,-815.506,-3339.16)">
        <g transform="matrix(1.3544,0,0,10.4095,0,2.83097)">
            <g transform="matrix(1.34716,0,0,0.175281,602.115,320.508)">
                <path d="M50.688,48.222C55.232,43.101 58,36.369 58,29C58,21.333 55.004,14.357 50.128,9.166L50.128,9.165C50.124,9.159 50.118,9.157 50.115,9.152C45.036,3.753 37.92,0.297 30.005,0.026L30.004,0.025L29.439,0.01C29.293,0.005 29.147,0 29,0C28.853,0 28.707,0.005 28.561,0.01L27.998,0.025L27.997,0.026C20.082,0.297 12.966,3.753 7.887,9.152C7.883,9.157 7.877,9.159 7.874,9.165C7.874,9.165 7.874,9.166 7.873,9.167C2.996,14.357 0,21.333 0,29C0,36.369 2.768,43.101 7.312,48.222C7.318,48.231 7.318,48.241 7.325,48.25C7.343,48.275 7.369,48.287 7.388,48.31C12.494,54.018 19.82,57.695 27.996,57.975L27.997,57.976L28.56,57.991C28.707,57.995 28.853,58 29,58C29.147,58 29.293,57.995 29.439,57.99L30.002,57.975L30.003,57.974C38.188,57.693 45.522,54.009 50.628,48.289C50.641,48.272 50.662,48.267 50.674,48.249C50.682,48.241 50.682,48.231 50.688,48.222ZM2.025,30L14.028,30C14.141,34.239 14.969,38.358 16.443,42.217C13.599,43.246 10.88,44.626 8.332,46.348C4.585,41.891 2.253,36.21 2.025,30ZM8.878,11.023C11.366,12.641 14.015,13.937 16.778,14.905C15.086,19.012 14.15,23.44 14.028,28L2.025,28C2.264,21.493 4.812,15.568 8.878,11.023ZM55.975,28L43.972,28C43.85,23.44 42.914,19.012 41.222,14.905C43.985,13.937 46.634,12.641 49.122,11.023C53.188,15.568 55.736,21.493 55.975,28ZM28,14.963C25.109,14.881 22.271,14.45 19.529,13.68C21.556,9.522 24.418,5.769 28,2.644L28,14.963ZM28,16.963L28,28L16.028,28C16.151,23.652 17.063,19.435 18.694,15.525C21.7,16.396 24.821,16.878 28,16.963ZM30,16.963C33.179,16.878 36.3,16.397 39.307,15.525C40.938,19.435 41.85,23.652 41.973,28L30,28L30,16.963ZM30,14.963L30,2.644C33.582,5.769 36.444,9.522 38.471,13.68C35.729,14.45 32.891,14.881 30,14.963ZM40.409,13.072C38.488,9.047 35.822,5.38 32.521,2.237C38.377,3.003 43.646,5.651 47.704,9.555C45.4,11.017 42.956,12.193 40.409,13.072ZM17.591,13.072C15.044,12.193 12.6,11.017 10.297,9.555C14.354,5.651 19.624,3.003 25.48,2.237C22.178,5.38 19.512,9.047 17.591,13.072ZM16.028,30L28,30L28,40.038C24.693,40.126 21.453,40.642 18.339,41.579C16.932,37.924 16.141,34.019 16.028,30ZM28,42.038L28,55.356C24.166,52.011 21.16,47.947 19.116,43.439C21.983,42.594 24.961,42.124 28,42.038ZM30,55.356L30,42.038C33.039,42.123 36.017,42.594 38.884,43.438C36.84,47.947 33.834,52.011 30,55.356ZM30,40.038L30,30L41.972,30C41.859,34.019 41.068,37.924 39.66,41.58C36.547,40.642 33.307,40.126 30,40.038ZM43.972,30L55.975,30C55.747,36.21 53.416,41.891 49.668,46.348C47.12,44.626 44.401,43.246 41.557,42.217C43.032,38.358 43.859,34.239 43.972,30ZM9.691,47.846C12.057,46.274 14.576,45.01 17.208,44.065C19.153,48.425 21.945,52.398 25.479,55.763C19.328,54.958 13.823,52.078 9.691,47.846ZM32.521,55.763C36.055,52.399 38.847,48.426 40.792,44.065C43.424,45.01 45.942,46.274 48.309,47.846C44.177,52.078 38.672,54.958 32.521,55.763Z" style="fill:white;fill-rule:nonzero;"/>
            </g>
        </g>
        <g transform="matrix(1.3544,0,0,10.4095,0,2.83097)">
            <g transform="matrix(0.412095,0,0,0.0536185,-11794.7,-77.0876)">
                <path d="M30240.3,7491.02L30304.7,7491.02C30325.1,7483.2 30322.5,7452.49 30296,7455.13L30295.7,7452.82L30302.4,7452.16C30302.1,7421.63 30265.6,7422.4 30257.8,7437.9C30243.8,7435.15 30236.9,7438.95 30238.3,7452.84C30224.2,7459.6 30218.1,7483.61 30240.3,7491.02Z" style="fill:white;stroke:white;stroke-width:0.9px;"/>
                <g transform="matrix(1.60807,0,0,1.766,30223.7,7406.25)">
                    <path d="M50.976,26.194C50.447,17.194 43.028,10 34.085,10C28.655,10 23.397,12.663 20.139,17.008C20.064,16.969 19.985,16.942 19.909,16.906C19.711,16.81 19.51,16.719 19.305,16.637C19.191,16.592 19.077,16.551 18.962,16.511C18.759,16.44 18.553,16.377 18.343,16.32C18.228,16.289 18.114,16.257 17.998,16.231C17.773,16.18 17.543,16.141 17.311,16.106C17.21,16.091 17.111,16.071 17.009,16.06C16.677,16.023 16.341,16 16,16C11.037,16 7,20.037 7,25C7,25.127 7.008,25.252 7.016,25.377L7.016,25.381C2.857,27.649 0,32.399 0,37.154C0,44.237 5.762,50 12.845,50L37.353,50C37.457,50 37.56,49.994 37.664,49.986L37.726,49.978L37.86,49.986C37.962,49.994 38.064,50 38.169,50L47.972,50C54.604,50 60,44.604 60,37.972C60,32.483 56.173,27.56 50.976,26.194ZM47.972,48L38.169,48C38.11,48 38.053,47.995 37.995,47.991L37.724,47.98L37.526,47.991C37.469,47.995 37.411,48 37.353,48L12.845,48C6.865,48 2,43.135 2,37.154C2,33 4.705,28.688 8.433,26.901L9,26.63L9,26C9,25.873 9.008,25.744 9.015,25.614L9.024,25.454L9.012,25.244C9.006,25.163 9,25.082 9,25C9,21.141 12.141,18 16,18C16.309,18 16.614,18.027 16.917,18.067C16.995,18.077 17.073,18.09 17.15,18.103C17.417,18.147 17.68,18.205 17.939,18.28C17.974,18.29 18.01,18.297 18.045,18.307C18.33,18.394 18.608,18.504 18.88,18.628C18.951,18.66 19.02,18.695 19.09,18.729C19.33,18.848 19.565,18.978 19.792,19.125C21.719,20.373 23,22.538 23,25C23,25.553 23.447,26 24,26C24.553,26 25,25.553 25,25C25,22.246 23.754,19.781 21.8,18.129C24.667,14.379 29.388,12 34.085,12C41.83,12 48.262,18.135 48.933,25.888C47.911,25.816 46.381,25.779 44.85,26.012C44.304,26.095 43.929,26.605 44.012,27.151C44.087,27.646 44.513,28.001 44.999,28.001C45.049,28.001 45.1,27.997 45.15,27.989C47.377,27.652 49.698,27.968 49.834,27.987C54.49,28.872 58,33.161 58,37.972C58,43.501 53.501,48 47.972,48Z" style="fill:white;fill-rule:nonzero;"/>
                </g>
            </g>
        </g>
    </g>
</svg>
