<?xml version="1.0" encoding="UTF-8"?>
<svg width="31px" height="30px" viewBox="0 0 31 30" version="1.1" xmlns="http://www.w3.org/2000/svg" xmlns:xlink="http://www.w3.org/1999/xlink">
    <!-- Generator: Sketch 60 (88103) - https://sketch.com -->
    <title>Fill 549</title>
    <desc>Created with Sketch.</desc>
    <g id="Page-6" stroke="none" stroke-width="1" fill="none" fill-rule="evenodd">
        <g id="Scriptuit_Website-updated" transform="translate(-323.000000, -280.000000)" fill1="#0D4A93" fill="#ffffff">
            <path d="M338.462,280.15 C330.219,280.15 323.536,286.83 323.536,295.08 C323.536,303.32 330.219,310 338.462,310 C346.704,310 353.388,303.32 353.388,295.08 C353.388,286.83 346.704,280.15 338.462,280.15 Z M334.124,302.71 L330.489,302.71 L330.489,291.78 L334.124,291.78 L334.124,302.71 Z M332.307,290.28 L332.283,290.28 C331.063,290.28 330.274,289.44 330.274,288.39 C330.274,287.32 331.087,286.5 332.331,286.5 C333.575,286.5 334.34,287.32 334.363,288.39 C334.363,289.44 333.575,290.28 332.307,290.28 Z M347.232,302.71 L343.597,302.71 L343.597,296.86 C343.597,295.39 343.071,294.39 341.756,294.39 C340.751,294.39 340.153,295.07 339.891,295.72 C339.794,295.95 339.771,296.28 339.771,296.61 L339.771,302.71 L336.136,302.71 C336.136,302.71 336.184,292.8 336.136,291.78 L339.771,291.78 L339.771,293.33 C340.254,292.58 341.118,291.52 343.047,291.52 C345.439,291.52 347.232,293.08 347.232,296.44 L347.232,302.71 Z" id="Fill-549"></path>
        </g>
    </g>
</svg>