<?xml version="1.0" encoding="UTF-8" standalone="no"?>
<!DOCTYPE svg PUBLIC "-//W3C//DTD SVG 1.1//EN" "http://www.w3.org/Graphics/SVG/1.1/DTD/svg11.dtd">
<svg width="100%" height="100%" viewBox="0 0 120 86" version="1.1" xmlns="http://www.w3.org/2000/svg" xmlns:xlink="http://www.w3.org/1999/xlink" xml:space="preserve" xmlns:serif="http://www.serif.com/" style="fill-rule:evenodd;clip-rule:evenodd;stroke-linejoin:round;stroke-miterlimit:2;">
    <g transform="matrix(1,0,0,1,-8131.82,-1527.82)">
        <g transform="matrix(1.3544,0,0,3.81023,8024.57,8.12579)">
            <g id="path53" transform="matrix(1.10884,0,0,0.394152,-285.967,236.425)">
                <path d="M330.523,467.054C331.189,466.023 332.279,464.335 332.946,463.304C334.503,460.893 335.198,460.937 335.838,463.487C336.83,467.438 336.788,467.429 353.907,467.429C363.757,467.429 370.074,467.717 370.359,468.179C370.664,468.672 363.713,468.929 350.067,468.929L329.312,468.929L330.523,467.054ZM399.838,467.616C399.217,466.894 397.921,464.026 396.958,461.241C395.995,458.457 395.016,456.178 394.783,456.178C394.55,456.177 394.359,457.949 394.359,460.115C394.359,463.997 394.324,464.057 391.963,464.286C389.753,464.5 389.508,464.294 388.814,461.661C388.401,460.089 387.526,455.766 386.87,452.054C385.023,441.598 384.458,438.902 384.022,438.466C383.388,437.832 365.205,443.892 364.888,444.842C364.732,445.31 366.659,449.207 369.17,453.503C371.68,457.798 373.734,461.676 373.734,462.121C373.734,462.565 373.059,463.604 372.234,464.429C370.833,465.83 369.734,465.929 355.509,465.929C339.478,465.929 338.484,465.728 338.484,462.496C338.484,459.751 340.233,459.131 350.228,458.333C355.52,457.91 359.969,457.444 360.116,457.297C360.262,457.151 358.493,453.821 356.183,449.897C351.509,441.955 350.953,438.942 353.551,435.64C355.444,433.233 357.17,432.308 366.304,428.81C384.224,421.947 385.79,421.463 387.535,422.259C388.882,422.872 390.727,427.133 396.85,443.768C401.049,455.177 404.484,465.101 404.484,465.82C404.484,467.311 403.1,468.929 401.826,468.929C401.353,468.929 400.459,468.338 399.838,467.616ZM395.236,426.895C393.074,425.194 391.642,421.136 392.278,418.509C393.197,414.717 398.297,411.343 401.787,412.219C404.778,412.969 408.142,416.297 408.65,419.008C409.19,421.887 407.641,425.458 405.072,427.258C402.665,428.944 397.604,428.757 395.236,426.895Z" style="fill:rgb(187,187,187);fill-rule:nonzero;"/>
            </g>
        </g>
    </g>
</svg>
