<?xml version="1.0" encoding="UTF-8" standalone="no"?>
<!DOCTYPE svg PUBLIC "-//W3C//DTD SVG 1.1//EN" "http://www.w3.org/Graphics/SVG/1.1/DTD/svg11.dtd">
<svg width="100%" height="100%" viewBox="0 0 145 119" version="1.1" xmlns="http://www.w3.org/2000/svg" xmlns:xlink="http://www.w3.org/1999/xlink" xml:space="preserve" xmlns:serif="http://www.serif.com/" style="fill-rule:evenodd;clip-rule:evenodd;stroke-linejoin:round;stroke-miterlimit:2;">
    <g transform="matrix(1,0,0,1,-193.532,-28.9053)">
        <g id="path21" transform="matrix(1.75532,0,0,1.75203,-169.169,-485.749)">
            <path d="M245.293,359.58C244.65,358.663 244.125,357.675 244.125,357.383C244.125,357.092 246.917,354.045 250.329,350.613C256.305,344.602 260.754,337.938 260.92,334.746C260.981,333.593 261.827,333 264.375,332.324C266.231,331.831 268.717,331.043 269.899,330.573C272.046,329.719 272.047,329.72 271.576,332.232C271.203,334.219 271.437,335.046 272.691,336.182C276.969,340.054 277.595,346.568 274.312,353.05C271.953,357.709 269.468,358.724 267.028,356.028C265.665,354.521 265.678,354.402 267.63,350.544C269.903,346.051 270.07,344.255 268.411,342.122C267.257,340.637 267.232,340.641 265.997,342.495C260.152,351.276 258.066,353.851 254.01,357.296C248.915,361.624 247.064,362.109 245.293,359.58ZM235.5,329.666C227.978,328.302 220.353,327.422 215.067,327.306C210.429,327.205 206.632,326.908 206.63,326.646C206.627,326.384 207.497,325.598 208.563,324.9C210.355,323.725 210.403,323.558 209.2,322.678C208.484,322.154 208.202,321.557 208.574,321.352C209.971,320.578 224.675,322.285 236.163,324.555C251.426,327.571 260.454,327.473 268.125,324.208C275.775,320.952 275.782,320.952 275.214,323.462C274.502,326.615 271.753,328.743 266.16,330.47C259.262,332.601 250.414,332.369 235.5,329.666ZM262.714,320.423C262.905,318.126 262.873,316.247 262.644,316.247C262.415,316.247 259.507,317.25 256.182,318.476C250.062,320.732 248.339,320.789 247.561,318.76C246.644,316.37 248.702,314.97 258.137,311.564C266.247,308.637 268.336,308.156 271.5,308.488C276.531,309.015 279.713,306.88 282.606,301.035C284.674,296.856 285.497,296.265 287.939,297.202C289.654,297.861 289.401,300.399 287.172,304.871C285.037,309.155 281.678,312.142 277.314,313.636C274.752,314.512 274.479,314.871 274.271,317.634C274.051,320.56 273.896,320.725 269.989,322.186C262.087,325.143 262.318,325.199 262.714,320.423ZM263.48,304.217C261.573,302.31 261.275,301.542 261.661,299.529C262.189,296.782 265.235,293.747 267.466,293.747C273.245,293.747 276.293,300.647 272.284,304.656C269.672,307.268 266.366,307.104 263.48,304.217Z" style="fill:rgb(187,187,187);fill-rule:nonzero;"/>
        </g>
    </g>
</svg>
