<?xml version="1.0" encoding="UTF-8" standalone="no"?>
<!DOCTYPE svg PUBLIC "-//W3C//DTD SVG 1.1//EN" "http://www.w3.org/Graphics/SVG/1.1/DTD/svg11.dtd">
<svg width="100%" height="100%" viewBox="0 0 105 94" version="1.1" xmlns="http://www.w3.org/2000/svg" xmlns:xlink="http://www.w3.org/1999/xlink" xml:space="preserve" xmlns:serif="http://www.serif.com/" style="fill-rule:evenodd;clip-rule:evenodd;stroke-linejoin:round;stroke-miterlimit:2;">
    <g transform="matrix(1,0,0,1,-8562.74,-1519.24)">
        <g transform="matrix(1.3544,0,0,3.81023,8024.57,8.12579)">
            <g id="path98" transform="matrix(1.03151,0,0,0.366664,234.256,332.824)">
                <path d="M194.268,240.436C192.578,238.746 193.285,236.428 197.527,229.741C199.832,226.108 201.435,222.885 201.089,222.579C200.744,222.273 197.086,220.251 192.961,218.086C188.836,215.922 185.213,213.763 184.91,213.29C183.59,211.228 184.788,209.244 192.211,201.196C196.542,196.5 200.086,192.366 200.086,192.008C200.086,191.651 198.82,190.141 197.273,188.652L194.461,185.946L189.211,187.355C180.904,189.585 178.336,189.101 178.336,185.305C178.336,183.119 179.758,182.405 187.833,180.539C191.479,179.697 195.018,178.837 195.699,178.629C196.544,178.37 200.558,181.706 208.352,189.146L219.768,200.041L223.425,196.98C225.436,195.296 227.271,193.611 227.503,193.236C228.109,192.255 231.128,192.396 232.186,193.454C234.198,195.466 233.094,197.593 227.355,202.764C224.203,205.605 220.969,208.04 220.17,208.176C219.262,208.331 217.069,206.992 214.335,204.614C211.926,202.518 209.635,200.804 209.245,200.804C208.329,200.804 198.961,211.253 198.961,212.276C198.961,212.703 201.05,214.119 203.602,215.423C209.269,218.317 210.586,219.368 210.586,220.994C210.586,221.685 207.97,226.453 204.773,231.59C200.103,239.095 198.592,240.972 197.081,241.149C196.047,241.269 194.781,240.949 194.268,240.436L194.268,240.436ZM158.986,229.904C157.535,228.453 157.941,225.679 159.773,224.53C160.702,223.948 162.811,223.253 164.461,222.985C174.716,221.321 175.268,221.096 178.217,217.364L181.04,213.794L183.78,216.162L186.521,218.531L182.864,223.05L179.208,227.569L171.084,229.187C161.726,231.051 160.222,231.14 158.986,229.904ZM214.567,189.421C209.805,188.153 207.656,182.08 210.354,177.514C211.954,174.805 215.083,173.485 218.566,174.051C221.897,174.591 223.916,176.335 224.724,179.368C226.409,185.695 220.933,191.115 214.567,189.421Z" style="fill:rgb(187,187,187);fill-rule:nonzero;"/>
            </g>
        </g>
    </g>
</svg>
